<?xml version="1.0" encoding="UTF-8"?>
<svg version="1.1" xmlns="http://www.w3.org/2000/svg" width="500" height="196">
<path d="M0 0 C165 0 330 0 500 0 C500 64.68 500 129.36 500 196 C335 196 170 196 0 196 C0 131.32 0 66.64 0 0 Z " fill="#1A1A1A" transform="translate(0,0)"/>
<path d="M0 0 C0 3.71174754 -0.96981969 4.58722586 -3.1875 7.5 C-11.29261156 18.712345 -13.64108869 28.3433201 -13 42 C-12.71525067 43.63421355 -12.38681612 45.26189449 -12 46.875 C-8.77526579 60.98031223 -10.86532797 75.84226291 -18.13671875 88.328125 C-26.38954556 100.16236722 -37.80771903 107.74059569 -51.921875 110.58984375 C-65.95234742 112.45938639 -77.37978789 110.04476223 -89 102 C-85.12832578 98.77360482 -80.26212423 95.05208981 -75.04296875 94.96875 C-73.60780086 95.16632569 -72.17555241 95.38574094 -70.74609375 95.62109375 C-59.42830674 97.18272297 -48.84249303 96.94795888 -39.34765625 90.08203125 C-31.13884874 83.27149345 -25.8069683 74.48757732 -24.78125 63.69921875 C-24.54412676 57.34629185 -25.87068502 51.95701216 -28 46 C-34.91665511 46.21042734 -38.54329593 49.24178391 -43.75 53.5625 C-45.3466291 54.84763133 -46.94428191 56.13149188 -48.54296875 57.4140625 C-49.30915527 58.03442383 -50.0753418 58.65478516 -50.86474609 59.29394531 C-54.34976053 62.07845033 -57.9665982 64.65567792 -61.59765625 67.24609375 C-64.86667429 69.63274269 -68.00102119 72.17731157 -71.125 74.75 C-73 76 -73 76 -76 76 C-50.92 50.92 -25.84 25.84 0 0 Z " fill="#F8F8F8" transform="translate(193,38)"/>
<path d="M0 0 C4.15927848 3.30087419 6.73753896 6.80411852 8.8984375 11.64453125 C9.1484375 15.08203125 9.1484375 15.08203125 8.8984375 17.64453125 C5.2684375 17.64453125 1.6384375 17.64453125 -2.1015625 17.64453125 C-2.4728125 16.75765625 -2.8440625 15.87078125 -3.2265625 14.95703125 C-5.66575894 10.64778421 -8.6090213 7.89080185 -13.1015625 5.64453125 C-19.54757818 5.1427456 -25.68642909 4.68223851 -31.1015625 8.64453125 C-37.03738222 14.44230865 -39.21131885 20.8989135 -39.4765625 29.14453125 C-39.20865207 37.13719245 -37.1836441 43.41261844 -31.625 49.26953125 C-27.52204448 52.97271162 -23.05327862 53.0920065 -17.73046875 52.94921875 C-12.49409685 52.34232869 -7.99861762 50.81324104 -4.46484375 46.7734375 C-1.93050552 42.93199072 -1.03035979 40.28851772 -0.1015625 35.64453125 C-6.7015625 35.64453125 -13.3015625 35.64453125 -20.1015625 35.64453125 C-20.1015625 32.67453125 -20.1015625 29.70453125 -20.1015625 26.64453125 C-9.8715625 26.64453125 0.3584375 26.64453125 10.8984375 26.64453125 C10.8984375 37.79379634 10.74246984 47.84775901 2.671875 56.24609375 C-5.94952373 63.04446544 -16.58717948 63.31135509 -27.1015625 62.64453125 C-35.1152501 60.92821391 -41.1126412 56.44763355 -45.7109375 49.81640625 C-46.16984375 49.0996875 -46.62875 48.38296875 -47.1015625 47.64453125 C-47.51921875 47.0103125 -47.936875 46.37609375 -48.3671875 45.72265625 C-53.05095278 37.21271651 -52.3518886 25.27041842 -49.9765625 16.08203125 C-46.75750938 7.26332293 -40.36818432 0.74855888 -32.01171875 -3.390625 C-21.33014551 -7.54349706 -9.59596232 -6.18921733 0 0 Z " fill="#F6F6F6" transform="translate(265.1015625,69.35546875)"/>
<path d="M0 0 C5.41030522 3.71958484 8.23256887 8.02147169 9.9375 14.33203125 C10.79124516 22.71064657 10.70185681 31.11250449 5.9375 38.33203125 C0.39877833 43.88231601 -5.51985444 46.61295765 -13.375 46.70703125 C-20.22970644 46.57550754 -24.63325644 45.35415 -29.7734375 40.82421875 C-35.43050101 34.89120092 -37.18536014 28.32837155 -37.5 20.26953125 C-37.30113373 13.16458193 -35.23102427 8.77162106 -30.5625 3.51953125 C-21.95424202 -4.01269448 -10.47918501 -5.45148779 0 0 Z " fill="#F6F6F6" transform="translate(350.0625,85.66796875)"/>
<path d="M0 0 C1.27230469 0.90492187 1.27230469 0.90492187 2.5703125 1.828125 C0.30920379 4.08923371 -1.73893121 5.13009197 -4.6171875 6.515625 C-5.99970703 7.20205078 -5.99970703 7.20205078 -7.41015625 7.90234375 C-11.16503514 9.05358087 -13.58223118 8.52691514 -17.4296875 7.828125 C-26.96570433 7.07962792 -35.92349981 6.95596078 -44.4296875 11.828125 C-45.06003906 12.16714844 -45.69039062 12.50617188 -46.33984375 12.85546875 C-53.10903245 17.03600067 -58.55161473 24.91004408 -60.9921875 32.4453125 C-62.91281679 42.90588274 -62.19098993 53.89523704 -56.05078125 62.8359375 C-54.59164634 64.67320064 -54.59164634 64.67320064 -52.4296875 66.828125 C-53.94020773 70.50483084 -56.078549 72.54686962 -59.0546875 75.140625 C-59.95832031 75.9346875 -60.86195312 76.72875 -61.79296875 77.546875 C-62.66308594 78.2996875 -63.53320312 79.0525 -64.4296875 79.828125 C-65.70115161 80.93156526 -66.97203582 82.03567428 -68.2421875 83.140625 C-68.87640625 83.69105469 -69.510625 84.24148437 -70.1640625 84.80859375 C-71.98949775 86.43574897 -73.78480925 88.08357964 -75.5703125 89.75390625 C-76.13387451 90.28008545 -76.69743652 90.80626465 -77.27807617 91.34838867 C-78.38842321 92.38788605 -79.4955749 93.43081142 -80.59887695 94.4777832 C-84.32735527 97.96730805 -88.2224692 100.93135174 -92.4296875 103.828125 C-90.8866007 100.09042586 -88.5888384 97.84622616 -85.6796875 95.078125 C-81.44409976 90.92199273 -77.70851747 86.773423 -74.4296875 81.828125 C-73.8109375 80.9 -73.1921875 79.971875 -72.5546875 79.015625 C-70.09021168 72.03294352 -70.9536075 65.74610629 -73.4296875 58.890625 C-77.37006572 47.04124389 -77.25942245 33.13311313 -72.03515625 21.71875 C-65.58512467 10.10555445 -56.95541442 0.81432783 -44.4296875 -4.171875 C-43.718125 -4.46964844 -43.0065625 -4.76742187 -42.2734375 -5.07421875 C-28.58898769 -10.0234281 -12.13158935 -8.04986678 0 0 Z " fill="#F7F7F7" transform="translate(158.4296875,56.171875)"/>
<path d="M0 0 C3.3 0 6.6 0 10 0 C10.33 13.53 10.66 27.06 11 41 C21.57040185 30.02162454 21.57040185 30.02162454 31 18 C34.0390625 17.70703125 34.0390625 17.70703125 37.625 17.8125 C38.81351562 17.83957031 40.00203125 17.86664063 41.2265625 17.89453125 C42.14179688 17.92933594 43.05703125 17.96414062 44 18 C41.12876571 21.41444077 38.23635575 24.77203777 35.15234375 27.99609375 C34.40561401 28.7845166 34.40561401 28.7845166 33.64379883 29.58886719 C32.63999801 30.64543169 31.62819662 31.69445854 30.6081543 32.73535156 C27.69589691 35.81720126 27 36.57445175 27 41 C28.45450421 43.18614616 29.91110195 45.16191542 31.5625 47.1875 C32.01415527 47.75831299 32.46581055 48.32912598 32.93115234 48.91723633 C34.27878427 50.61861566 35.63791368 52.31018223 37 54 C38.37920031 55.72581832 39.75488541 57.45445979 41.125 59.1875 C41.68445313 59.88230469 42.24390625 60.57710937 42.8203125 61.29296875 C44 63 44 63 44 65 C39.56715396 66.38830892 36.41333189 66.53819711 32 65 C25.95836051 59.25240228 20.72819291 51.45638582 17 44 C14.69 43.67 12.38 43.34 10 43 C10 50.26 10 57.52 10 65 C6.7 65 3.4 65 0 65 C0 43.55 0 22.1 0 0 Z " fill="#FAFAFA" transform="translate(368,66)"/>
<path d="M0 0 C4.30602968 2.11079886 7.10157436 4.62630346 9.3046875 8.94921875 C11.20134933 14.5433056 10.71875219 20.09463799 8.3125 25.4375 C6.36243079 28.78918145 4.75279425 30.66567316 1 32 C-2.82611269 32.62351466 -6.30237499 32.84161918 -9.84375 31.0859375 C-13.57527658 28.25070897 -15.16154219 25.52767215 -16 21 C-16.69498234 13.82213554 -16.4715406 8.80091753 -12 3 C-8.12997431 -0.24245395 -4.96691561 -0.60997209 0 0 Z " fill="#202020" transform="translate(340,91)"/>
<path d="M0 0 C0.9178125 0.03158203 1.835625 0.06316406 2.78125 0.09570312 C5.02224057 0.17740591 7.26156149 0.30293738 9.5 0.4375 C9.5 3.4075 9.5 6.3775 9.5 9.4375 C3.89 9.4375 -1.72 9.4375 -7.5 9.4375 C-7.5 21.9775 -7.5 34.5175 -7.5 47.4375 C-11.13 47.4375 -14.76 47.4375 -18.5 47.4375 C-18.69852452 41.86926907 -18.84327806 36.30311832 -18.93945312 30.73217773 C-18.97955987 28.83955995 -19.03406288 26.94718813 -19.10351562 25.05541992 C-19.65336289 9.6879974 -19.65336289 9.6879974 -17.05273438 4.61352539 C-12.14644309 -0.28841635 -6.60278435 -0.4366667 0 0 Z " fill="#ECECEC" transform="translate(302.5,83.5625)"/>
<path d="M0 0 C-2.87123429 3.41444077 -5.76364425 6.77203777 -8.84765625 9.99609375 C-9.34547607 10.52170898 -9.8432959 11.04732422 -10.35620117 11.58886719 C-11.36000199 12.64543169 -12.37180338 13.69445854 -13.3918457 14.73535156 C-16.30410309 17.81720126 -17 18.57445175 -17 23 C-15.54549579 25.18614616 -14.08889805 27.16191542 -12.4375 29.1875 C-11.98584473 29.75831299 -11.53418945 30.32912598 -11.06884766 30.91723633 C-9.72121573 32.61861566 -8.36208632 34.31018223 -7 36 C-5.62079969 37.72581832 -4.24511459 39.45445979 -2.875 41.1875 C-2.31554687 41.88230469 -1.75609375 42.57710937 -1.1796875 43.29296875 C0 45 0 45 0 47 C-4.43284604 48.38830892 -7.58666811 48.53819711 -12 47 C-18.04163949 41.25240228 -23.27180709 33.45638582 -27 26 C-29.32156597 25.59270772 -31.6568787 25.25561323 -34 25 C-33.195625 24.071875 -32.39125 23.14375 -31.5625 22.1875 C-28.82552899 18.99760235 -26.15568811 15.75782382 -23.5 12.5 C-22.72140625 11.56542969 -21.9428125 10.63085938 -21.140625 9.66796875 C-19.02776476 7.13016481 -19.02776476 7.13016481 -17.546875 4.73828125 C-13.17218022 -1.75787696 -7.24332594 -0.67704679 0 0 Z " fill="#F4F4F4" transform="translate(412,84)"/>
<path d="M0 0 C0 3.76738372 -1.12133618 4.92068025 -3.3125 7.9375 C-3.92738281 8.79214844 -4.54226562 9.64679687 -5.17578125 10.52734375 C-6.77346531 12.6929412 -8.37972509 14.85126619 -10 17 C-10.99 16.01 -10.99 16.01 -12 15 C-12.825 16.010625 -13.65 17.02125 -14.5 18.0625 C-16.6774796 20.60483246 -18.89021592 22.84350389 -21.45703125 24.98828125 C-27.32925957 30.06110265 -32.72626116 35.61972562 -38.1875 41.125 C-39.26473707 42.20726709 -40.34220961 43.28929986 -41.41992188 44.37109375 C-43.40014254 46.35940254 -45.37872012 48.34929366 -47.35620117 50.34033203 C-54.2191457 57.24447071 -54.2191457 57.24447071 -57.16796875 60.09765625 C-57.83441406 60.74605469 -58.50085938 61.39445312 -59.1875 62.0625 C-59.86167969 62.71347656 -60.53585938 63.36445312 -61.23046875 64.03515625 C-63.06078655 65.88484954 -63.06078655 65.88484954 -63.9921875 68.04296875 C-65.25269407 70.49069661 -66.73134814 71.62311706 -68.9375 73.25 C-69.97197266 74.03117187 -69.97197266 74.03117187 -71.02734375 74.828125 C-73 76 -73 76 -76 76 C-50.92 50.92 -25.84 25.84 0 0 Z " fill="#ECECEC" transform="translate(193,38)"/>
<path d="M0 0 C0.66 1.32 1.32 2.64 2 4 C-0.34757388 6.23619429 -2.70423087 8.46259199 -5.0625 10.6875 C-6.04766602 11.62625977 -6.04766602 11.62625977 -7.05273438 12.58398438 C-11.16016911 16.44861509 -15.33560638 19.8277271 -20 23 C-18.4569132 19.26230086 -16.1591509 17.01810116 -13.25 14.25 C-9.45873173 10.55186982 -6.16803693 6.84742544 -3.15625 2.49609375 C-2 1 -2 1 0 0 Z " fill="#E5E5E5" transform="translate(86,137)"/>
<path d="M0 0 C0.66 0.33 1.32 0.66 2 1 C-2.42684167 6.73849846 -7.40243813 11.44384499 -13 16 C-13.66 15.67 -14.32 15.34 -15 15 C-10.05 10.05 -5.1 5.1 0 0 Z " fill="#CDCDCD" transform="translate(132,99)"/>
<path d="M0 0 C0 4.35336165 -2.22071064 6.77602435 -5 10 C-7.7084497 11.83218656 -8.68560062 12 -12 12 C-8.04 8.04 -4.08 4.08 0 0 Z " fill="#DFDEDF" transform="translate(193,38)"/>
<path d="M0 0 C0.66 0.66 1.32 1.32 2 2 C-1.63 5.3 -5.26 8.6 -9 12 C-9 9 -9 9 -7.03125 6.73828125 C-5.77828125 5.53751953 -5.77828125 5.53751953 -4.5 4.3125 C-3.6646875 3.50425781 -2.829375 2.69601563 -1.96875 1.86328125 C-1.3190625 1.24839844 -0.669375 0.63351563 0 0 Z " fill="#C4C4C4" transform="translate(76,148)"/>
<path d="M0 0 C0.99 0.33 1.98 0.66 3 1 C1.35 2.98 -0.3 4.96 -2 7 C-2.66 6.67 -3.32 6.34 -4 6 C-2.84826645 3.53199953 -1.95216435 1.95216435 0 0 Z " fill="#292929" transform="translate(161,66)"/>
</svg>
