<?xml version="1.0" encoding="UTF-8"?>
<svg version="1.1" xmlns="http://www.w3.org/2000/svg" width="860" height="860">
<path d="M0 0 C2.52457412 0.3838736 5.0388612 0.64567156 7.58105469 0.88330078 C18.27265899 2.00517582 24.13246539 4.11431654 31.49511719 12.37939453 C32.67521362 13.18872437 32.67521362 13.18872437 33.87915039 14.0144043 C37.30118341 17.10812655 38.60810337 20.26801685 40.35839844 24.47314453 C40.88139023 25.68199562 40.88139023 25.68199562 41.41494751 26.91526794 C42.55824696 29.56483182 43.68257554 32.22203343 44.80761719 34.87939453 C45.60951973 36.74408168 46.41300837 38.60808747 47.21801758 40.47143555 C48.86196944 44.27862096 50.50033945 48.0881302 52.13476562 51.89941406 C55.50152549 59.73451849 58.96088898 67.5278709 62.43261719 75.31689453 C62.75157959 76.03364349 63.07054199 76.75039246 63.39916992 77.48886108 C81.42668824 118.17554183 81.42668824 118.17554183 100.49511719 158.37939453 C100.91019531 159.22469727 101.32527344 160.07 101.75292969 160.94091797 C103.01582888 163.50642407 104.2848168 166.06878728 105.55761719 168.62939453 C105.90896729 169.33692871 106.26031738 170.04446289 106.62231445 170.7734375 C109.36886763 176.24940468 112.2235432 181.66607297 115.08496094 187.08251953 C120.82801293 197.96080411 126.41508251 208.91684157 131.99511719 219.87939453 C134.10494802 224.02175326 136.21566951 228.16365689 138.32714844 232.30517578 C138.84900223 233.32883743 139.37085602 234.35249908 139.90852356 235.40718079 C143.21208742 241.88148424 146.53716538 248.34420908 149.88183594 254.79736328 C150.29559479 255.59679352 150.70935364 256.39622375 151.13565063 257.21987915 C153.04296355 260.90484839 154.95430358 264.58759253 156.87402344 268.26611328 C163.11751183 280.28183149 167.96711319 292.21753841 171.68261719 305.25439453 C172.36279398 307.60619226 173.04375636 309.95776295 173.72558594 312.30908203 C174.01844482 313.33243652 174.31130371 314.35579102 174.61303711 315.41015625 C174.90412354 316.39000488 175.19520996 317.36985352 175.49511719 318.37939453 C175.77911377 319.47396973 176.06311035 320.56854492 176.35571289 321.69628906 C176.73171631 322.58171387 177.10771973 323.46713867 177.49511719 324.37939453 C179.51936732 325.08559283 179.51936732 325.08559283 181.49511719 325.37939453 C181.54917725 324.19450439 181.6032373 323.00961426 181.65893555 321.78881836 C182.26589126 308.86604699 183.06879412 295.96600153 184.05761719 283.06689453 C184.18108017 281.45033463 184.18108017 281.45033463 184.30703735 279.80111694 C185.85850612 259.82103803 188.08957727 239.93906521 190.436306 220.04083252 C194.57664703 184.8757186 197.56239935 149.61855547 200.52514648 114.33764648 C200.61769431 113.23768593 200.71024214 112.13772537 200.80559444 111.00443268 C201.24126659 105.82390288 201.67432625 100.6431929 202.10063171 95.46188354 C202.81669605 86.8132027 203.56389784 78.16683905 204.44702148 69.53344727 C204.5458793 68.47884701 204.5458793 68.47884701 204.64673424 67.4029417 C205.42744429 60.1274035 207.8009271 53.51496009 210.59594727 46.7890625 C211.44135843 44.73313701 212.22337648 42.6595473 213.00488281 40.57861328 C216.59832252 31.46727547 220.96724521 26.42572893 229.49511719 21.37939453 C230.88662975 20.39203965 232.26933335 19.39205774 233.63964844 18.37548828 C234.8609596 17.52069862 236.08357522 16.66776911 237.30761719 15.81689453 C237.92314453 15.36765625 238.53867187 14.91841797 239.17285156 14.45556641 C242.0301202 12.48911111 243.92872948 11.37188276 247.44042969 11.41845703 C248.9525 11.89412109 248.9525 11.89412109 250.49511719 12.37939453 C251.10605225 12.5641333 251.7169873 12.74887207 252.34643555 12.93920898 C265.41287676 17.22651017 272.2131271 24.81164913 279.21630859 36.38037109 C280.55432504 38.59249264 280.55432504 38.59249264 282.91308594 41.05908203 C286.86665685 49.3567 283.14582332 61.96012478 281.83496094 70.88330078 C281.65770477 72.09890182 281.48044861 73.31450287 281.29782104 74.56694031 C280.68751968 78.69373773 280.06288316 82.81811147 279.43261719 86.94189453 C279.32272335 87.66505356 279.21282951 88.38821259 279.09960556 89.13328552 C271.76497552 137.30207288 262.00412484 185.08182497 252.66264343 232.89256287 C249.28150808 250.21672912 245.99925107 267.55727494 242.82588196 284.92071533 C242.67307833 285.75301414 242.5202747 286.58531296 242.36284065 287.44283295 C242.08215296 288.97285507 241.80328601 290.50321288 241.5266552 292.03397369 C240.99989997 294.903624 240.41941528 297.60650027 239.49511719 300.37939453 C244.02305923 300.28698755 246.57131855 299.74981031 249.87011719 296.56689453 C253.93659451 292.10717544 257.45271131 287.22908193 261.01953125 282.36865234 C264.07080931 278.25518219 267.19694684 274.19800829 270.30761719 270.12939453 C274.64701018 264.44841426 278.97018663 258.75767811 283.23242188 253.01855469 C288.74600517 245.59842256 294.48264069 238.39533036 300.34277344 231.24658203 C303.27675582 227.66228857 306.14615343 224.03143236 308.99511719 220.37939453 C313.47682997 214.63906809 318.05468851 208.98245502 322.65917969 203.34033203 C326.15042948 199.05486427 329.59269763 194.73563565 332.99511719 190.37939453 C341.68950658 179.27307475 350.44897464 168.30061964 360.07324219 157.98095703 C362.13097209 155.77055684 364.14011494 153.5341219 366.12011719 151.25439453 C373.15631746 143.16111253 380.40868534 135.28554416 387.77001953 127.48828125 C390.77849747 124.29801762 393.76603444 121.09815223 396.67089844 117.81298828 C403.35036244 110.29230948 410.36083132 104.30814248 418.49511719 98.37939453 C419.2028125 97.69675537 419.91050781 97.01411621 420.63964844 96.31079102 C424.4673021 93.72182315 427.55695644 93.56659484 432.09277344 93.35595703 C432.91966675 93.31144913 433.74656006 93.26694122 434.59851074 93.22108459 C458.29817698 92.19459496 458.29817698 92.19459496 465.27246094 95.82519531 C469.3929643 99.66725872 471.28660741 104.47964359 473.27832031 109.65771484 C475.95427957 115.64318713 480.34085357 120.78032984 484.22192383 126.0324707 C488.98993257 132.94127299 488.98993257 132.94127299 488.66308594 137.44970703 C488.328131 139.10487458 487.92826469 140.74716977 487.49511719 142.37939453 C487.19839111 143.59973389 486.90166504 144.82007324 486.59594727 146.07739258 C485.68595037 149.71605602 484.6809131 153.32188822 483.64160156 156.92553711 C483.00120515 159.17055218 482.39663742 161.42335879 481.79199219 163.67822266 C479.00464213 173.62465118 475.30231651 180.47507257 468.49511719 188.37939453 C467.45091469 189.69564569 466.41111212 191.01541315 465.37792969 192.34033203 C464.46037118 193.47973392 463.54110831 194.61776547 462.62011719 195.75439453 C461.58838948 197.03656236 460.55715021 198.31912336 459.52636719 199.60205078 C459.01847656 200.23385254 458.51058594 200.8656543 457.98730469 201.51660156 C445.61065889 216.96715907 433.54918406 232.67685591 421.49511719 248.37939453 C420.74488281 249.35263672 419.99464844 250.32587891 419.22167969 251.32861328 C416.64182593 254.67556641 414.06754038 258.02672968 411.49511719 261.37939453 C410.58487793 262.5644458 410.58487793 262.5644458 409.65625 263.7734375 C399.31345584 277.23949159 399.31345584 277.23949159 389.36230469 290.99462891 C386.2227871 295.43881358 382.93010744 299.7546186 379.61157227 304.06640625 C368.33627855 318.71947569 358.68839298 333.51025541 349.70214844 349.67236328 C347.67164803 353.31501363 345.59635692 356.92047532 343.44433594 360.49267578 C342.97640625 361.2701416 342.50847656 362.04760742 342.02636719 362.84863281 C341.15468552 364.28760441 340.27616665 365.72246486 339.38964844 367.15234375 C337.30476621 370.60236908 336.49511719 372.24110834 336.49511719 376.37939453 C342.46086599 376.57094689 347.69734152 375.92363968 353.50610352 374.61376953 C354.81290274 374.32998538 354.81290274 374.32998538 356.14610195 374.04046822 C358.04184297 373.62793572 359.93678571 373.2117213 361.83100128 372.79224014 C364.90062286 372.11313959 367.97244854 371.4449817 371.04510498 370.77975464 C375.4825638 369.81884476 379.91938694 368.85508549 384.35574341 367.88909912 C422.46598178 359.60257686 460.62216424 351.87927142 499.05761719 345.25439453 C500.48693762 345.00786133 500.48693762 345.00786133 501.94513321 344.75634766 C510.76569339 343.23675295 519.58845488 341.73104971 528.41606236 340.2529335 C534.5719287 339.22202856 540.72028684 338.16870171 546.85791016 337.03271484 C547.93169418 336.83598175 549.00547821 336.63924866 550.11180115 336.43655396 C551.99772563 336.08809411 553.88213463 335.7312435 555.76429749 335.36300659 C563.14699741 334.00626201 568.75059624 334.71573242 575.57714844 338.03173828 C576.67349609 338.56089844 577.76984375 339.09005859 578.89941406 339.63525391 C580.02412109 340.19019531 581.14882813 340.74513672 582.30761719 341.31689453 C583.45166016 341.86796875 584.59570312 342.41904297 585.77441406 342.98681641 C594.2062797 347.09055705 594.2062797 347.09055705 596.49511719 349.37939453 C597.12792969 351.29736328 597.12792969 351.29736328 597.62011719 353.56689453 C597.87148437 354.67097656 597.87148437 354.67097656 598.12792969 355.79736328 C599.8041207 367.58419581 595.66047913 379.2731906 589.83001709 389.44354248 C582.90616347 398.14944453 570.32861673 399.23663212 559.94348526 401.05268478 C556.31904064 401.71315122 552.72449557 402.50948513 549.12475586 403.29174805 C543.32079729 404.53631545 537.50701625 405.70565278 531.67480469 406.81005859 C524.48390627 408.17199507 517.33034157 409.67242765 510.18261719 411.24658203 C502.84588877 412.8479633 495.50463816 414.40933371 488.13964844 415.87548828 C487.23581421 416.05630951 486.33197998 416.23713074 485.40075684 416.4234314 C480.63849759 417.37185408 475.87430696 418.30881798 471.10482788 419.22024536 C438.75101832 425.40543957 406.72075749 432.80760972 374.69880801 440.49833769 C367.89186461 442.1328064 361.08257737 443.75741357 354.27315557 445.38152039 C340.34466248 448.7038042 326.41890344 452.0374393 312.49511719 455.37939453 C312.49511719 455.70939453 312.49511719 456.03939453 312.49511719 456.37939453 C319.50168844 457.07584936 326.50855554 457.7692692 333.515625 458.46069336 C335.89362198 458.69569049 338.2715533 458.93135314 340.64941406 459.16772461 C344.08999369 459.50961414 347.53081143 459.84901741 350.97167969 460.18798828 C352.01498444 460.29219589 353.05828918 460.3964035 354.13320923 460.50376892 C366.64247158 461.73051229 379.00448204 462.50411312 391.57714844 462.41455078 C428.07728902 462.3284852 464.53679687 463.51115109 500.96322632 465.82809448 C505.56819259 466.11854031 510.17252578 466.36893126 514.78164673 466.58328247 C542.39271795 467.89932412 565.21913571 469.93732892 585.49511719 490.37939453 C590.83645529 496.32359393 595.39463739 502.532137 599.49511719 509.37939453 C600.15511719 510.36939453 600.81511719 511.35939453 601.49511719 512.37939453 C601.54199219 515.05126953 601.54199219 515.05126953 601.24511719 518.12939453 C601.11363281 519.63759766 601.11363281 519.63759766 600.97949219 521.17626953 C600.81964844 522.23330078 600.65980469 523.29033203 600.49511719 524.37939453 C600.31851563 525.56662109 600.14191406 526.75384766 599.95996094 527.97705078 C597.87411139 532.82178399 594.95137078 533.91362214 590.30761719 536.06689453 C588.58264709 536.90726886 586.85873512 537.74981766 585.13574219 538.59423828 C584.22115234 539.03622559 583.3065625 539.47821289 582.36425781 539.93359375 C579.36132578 541.44681392 576.45597416 543.0806255 573.54199219 544.75830078 C572.54578857 545.31880127 571.54958496 545.87930176 570.52319336 546.45678711 C568.59079681 547.5466734 566.67076287 548.65887021 564.76586914 549.79614258 C559.84844605 552.50171271 556.5035788 553.7823776 550.90974426 552.6844635 C549.85783213 552.48166842 548.80591999 552.27887333 547.72213173 552.06993294 C542.57333718 550.96815904 537.44449202 549.81141566 532.32592773 548.57641602 C531.16893812 548.30075302 530.01194851 548.02509003 528.81989861 547.74107361 C525.66583632 546.98874244 522.51266499 546.23280813 519.35986066 545.47522616 C515.99517196 544.66768055 512.62934711 543.86489669 509.26365662 543.0615387 C502.7957583 541.5169501 496.32888196 539.96812581 489.86236495 538.41776568 C482.43119531 536.63631313 474.99897723 534.85925439 467.56668377 533.08249736 C455.14385281 530.11260918 442.72179294 527.13951223 430.30029297 524.1640625 C418.08661306 521.23842444 405.87168702 518.31804507 393.65547371 515.40300179 C388.06329635 514.06843273 382.47142693 512.73257416 376.87954712 511.39675903 C374.09690686 510.73203365 371.31416658 510.06772951 368.53134155 509.40377808 C364.75062279 508.50154731 360.97040884 507.59721958 357.19042969 506.69189453 C355.47612511 506.28155724 355.47612511 506.28155724 353.72718811 505.8629303 C347.73263753 504.42129171 341.74767182 502.94609095 335.77148438 501.43017578 C334.49892792 501.10815186 333.22637146 500.78612793 331.91525269 500.4543457 C329.49865655 499.84060951 327.08314426 499.22258252 324.66897583 498.59936523 C318.93815035 497.14180565 313.38463713 495.93884961 307.49511719 495.37939453 C309.94057725 500.01044731 313.16596314 503.32529956 316.85058594 506.96533203 C317.47105301 507.58534088 318.09152008 508.20534973 318.73078918 508.84414673 C320.04219891 510.15254351 321.35603008 511.4585172 322.67211914 512.76220703 C324.66376566 514.73571469 326.64741046 516.7169882 328.62988281 518.69970703 C337.04542858 527.10830897 337.04542858 527.10830897 345.92407227 535.02050781 C347.70402801 536.56009346 349.34751626 538.19966903 350.99511719 539.87939453 C353.94032439 542.87093083 357.02457461 545.63038682 360.20214844 548.37158203 C362.96417601 550.79012066 365.66909431 553.26830829 368.37011719 555.75439453 C373.71127068 560.66755219 379.09307455 565.53318908 384.49511719 570.37939453 C386.99824136 572.6314216 389.50058333 574.88431576 392.00292969 577.13720703 C393.64251597 578.61232071 395.28311373 580.08631105 396.92480469 581.55908203 C402.46736948 586.53499483 407.96561793 591.55578441 413.44042969 596.60595703 C415.71222541 598.68663523 418.02402546 600.71566492 420.35058594 602.73486328 C424.56255679 606.40786156 428.62913791 610.22065798 432.68261719 614.06689453 C437.80363441 618.9068191 442.93411176 623.73411398 448.12011719 628.50439453 C452.76379482 632.7762875 457.38583775 637.07040153 461.99511719 641.37939453 C467.14543478 646.1938361 472.31444222 650.98691272 477.50195312 655.76123047 C480.53048468 658.55295565 483.54437896 661.35941118 486.54589844 664.18017578 C487.23852783 664.83042725 487.93115723 665.48067871 488.64477539 666.15063477 C490.03683239 667.46211006 491.42475443 668.7779893 492.80834961 670.09838867 C496.31265937 673.42553587 499.84441845 676.39302671 503.74511719 679.25439453 C509.67456457 684.37888825 510.53490196 692.95510811 511.49511719 700.37939453 C511.62789062 701.37970703 511.76066406 702.38001953 511.89746094 703.41064453 C511.30155707 707.80760512 509.04299572 710.7011369 506.49511719 714.25439453 C505.7796875 715.28693359 505.7796875 715.28693359 505.04980469 716.34033203 C503.87732169 718.02870754 502.6878717 719.70527838 501.49511719 721.37939453 C494.08055947 722.47600139 488.6544478 721.46437651 482.55761719 717.24267578 C477.97606066 713.80553781 473.55295684 710.17404288 469.13818359 706.52636719 C465.19853367 703.32617493 461.10600446 700.35410042 456.99511719 697.37939453 C449.36866985 691.80091506 441.84254808 686.0990795 434.34643555 680.34692383 C430.08023811 677.0810053 425.79591248 673.85218865 421.43652344 670.71142578 C412.6388909 664.37221177 404.45394308 657.85288148 396.63183594 650.34033203 C392.98409444 646.84769487 389.07973428 643.71070573 385.13964844 640.55517578 C382.33672471 638.24907753 379.66508444 635.83787923 376.99511719 633.37939453 C372.6048315 629.34306398 368.08336099 625.53908924 363.44433594 621.79345703 C360.08143249 619.0407758 356.7858215 616.21757684 353.49511719 613.37939453 C349.37060013 609.82467908 345.22303214 606.31146667 340.99511719 602.87939453 C336.76716162 599.44728942 332.62047243 595.93317784 328.49511719 592.37939453 C326.16373611 590.37710837 323.830301 588.37724421 321.49511719 586.37939453 C320.95725586 585.91871582 320.41939453 585.45803711 319.86523438 584.98339844 C318.37349368 583.71174301 316.87204035 582.45150742 315.37011719 581.19189453 C314.52191406 580.47646484 313.67371094 579.76103516 312.79980469 579.02392578 C310.55529415 577.42233437 309.13274066 576.94390563 306.49511719 576.37939453 C307.67090642 582.18066091 309.13037826 585.84324265 312.78808594 590.61767578 C313.70090556 591.84116342 314.61004402 593.06740335 315.51611328 594.29589844 C316.00061951 594.95156799 316.48512573 595.60723755 316.98431396 596.28277588 C319.70765229 600.06209131 322.24589203 603.96240572 324.79589844 607.85986328 C325.35167572 608.70714996 325.907453 609.55443665 326.48007202 610.42739868 C327.64856198 612.21030184 328.81615239 613.99379482 329.98291016 615.77783203 C339.9468411 631.00768848 350.00508297 646.16962249 360.20916748 661.23959351 C361.9944324 663.87838236 363.77599338 666.51962956 365.55615234 669.16186523 C366.14638184 670.03790909 366.73661133 670.91395294 367.34472656 671.81654358 C368.54176329 673.59344586 369.73870333 675.37041327 370.93554688 677.14744568 C374.12884623 681.8846149 377.33376326 686.61343912 380.55517578 691.33154297 C383.9664937 696.32830528 387.35489334 701.33994664 390.72949219 706.36157227 C392.01494915 708.26549471 393.30853948 710.16395519 394.61083984 712.05639648 C407.20720047 730.3761361 407.20720047 730.3761361 407.49511719 742.37939453 C407.68944192 743.98825905 407.89910339 745.59538609 408.12792969 747.19970703 C408.64620891 751.58701245 409.09191146 755.98011316 409.49511719 760.37939453 C409.594375 761.43771484 409.69363281 762.49603516 409.79589844 763.58642578 C410.08203059 769.30089354 409.44944632 774.68211346 406.90527344 779.85205078 C401.15371745 785.88326103 390.57767153 788.76190157 382.40527344 789.59155273 C373.22190398 789.76877164 361.74813801 788.91250297 354.49511719 782.88720703 C352.36573729 780.13442315 350.50769987 777.40501686 348.73339844 774.42041016 C346.8759154 771.3587859 344.82779794 768.43582838 342.79296875 765.49023438 C341.67308489 763.86793911 340.56049291 762.24058713 339.45507812 760.60839844 C335.8985045 755.35707467 332.21041422 750.23876715 328.37011719 745.19189453 C322.47650499 737.42843295 316.93148297 729.4683435 311.49511719 721.37939453 C310.90214844 720.49751465 310.30917969 719.61563477 309.69824219 718.70703125 C301.14802449 705.97076947 292.70957969 693.16370126 284.35058594 680.30126953 C281.65702907 676.15776343 278.94965472 672.02368002 276.23339844 667.89501953 C263.28832938 648.20830126 250.93839737 628.30830918 239.22558594 607.86376953 C235.11786676 600.70181256 230.92156634 593.59376896 226.70605469 586.49487305 C223.92662568 581.8127083 221.18072332 577.11606023 218.49511719 572.37939453 C216.84511719 572.37939453 215.19511719 572.37939453 213.49511719 572.37939453 C213.44730826 573.33307859 213.39949934 574.28676266 213.35024166 575.26934624 C212.68308688 587.8614879 211.55929103 600.39972671 210.39379883 612.95410156 C210.17992794 615.28017671 209.96628598 617.60627291 209.75285339 619.93238831 C209.17708518 626.19844124 208.5976516 632.46414974 208.01714635 638.72976542 C207.65420475 642.64874654 207.29202992 646.56779777 206.93011284 650.48687363 C205.92564064 661.36336035 204.92039474 672.23977439 203.91127872 683.11583138 C203.84702952 683.80829725 203.78278032 684.50076313 203.71658417 685.21421283 C203.58637532 686.61752925 203.45616538 688.02084558 203.32595439 689.42416181 C203.22901981 690.46886236 203.22901981 690.46886236 203.13012695 691.53466797 C203.06542355 692.23199397 203.00072015 692.92931997 202.93405604 693.64777707 C201.88268127 704.98054386 200.83772548 716.31389251 199.79556829 727.64751031 C198.72254327 739.31592976 197.64451177 750.98387755 196.56134886 762.65136039 C195.95451303 769.18977401 195.34979448 775.72836665 194.75032234 782.26745987 C194.18740327 788.40602641 193.61810147 794.54396771 193.04387093 800.68148613 C192.83434598 802.93269841 192.62710842 805.18412494 192.42232895 807.43577385 C192.14244299 810.50931984 191.85430964 813.58198544 191.56410217 816.65457153 C191.48500911 817.54474035 191.40591605 818.43490917 191.32442623 819.35205281 C190.38760601 829.06005336 187.9620422 837.07744118 180.5546875 843.88378906 C173.28946813 849.15959914 160.50324635 854.85348204 151.41967773 854.13671875 C142.80196271 851.90513414 132.64612996 843.23049413 127.94042969 835.75830078 C126.23074937 832.35033801 124.82818825 828.94938361 123.49511719 825.37939453 C122.9859375 824.33654297 122.47675781 823.29369141 121.95214844 822.21923828 C117.03165218 811.99568708 119.17326904 802.84147048 121.60131836 792.08032227 C121.81314318 791.11419321 122.02496799 790.14806416 122.24321175 789.15265846 C122.7007597 787.06753412 123.16113406 784.98302833 123.62407875 782.89909554 C124.88904731 777.19920665 126.12933034 771.49393779 127.37158203 765.7890625 C127.6304548 764.60219502 127.88932756 763.41532755 128.15604496 762.19249439 C132.41411726 742.62149016 136.39631469 722.99229936 140.39477539 703.36694336 C141.34131773 698.72249577 142.2923326 694.07899884 143.24731445 689.4362793 C150.11753822 656.02985738 156.45330148 622.66100641 161.17010498 588.87670898 C163.30356225 573.71453869 166.0342396 559.0591619 170.49511719 544.37939453 C166.70498084 545.07360044 165.45657091 546.34475677 163.25 549.52856445 C162.85651367 550.11871338 162.46302734 550.7088623 162.05761719 551.31689453 C161.1691615 552.60395195 160.27979403 553.8903803 159.38964844 555.17626953 C158.91994629 555.86140625 158.45024414 556.54654297 157.96630859 557.25244141 C155.44620202 560.89584805 152.84385303 564.47935991 150.24511719 568.06689453 C149.70056885 568.82091553 149.15602051 569.57493652 148.5949707 570.35180664 C144.01425518 576.68669694 139.37769924 582.97957138 134.73095703 589.26611328 C130.73916782 594.67269983 126.79332139 600.11038948 122.87011719 605.56689453 C118.34353863 611.85808304 113.74479858 618.08803356 109.08007812 624.27734375 C103.41909276 631.79266233 97.85050997 639.37551374 92.27734375 646.95605469 C88.77193236 651.72245379 85.26040684 656.4843499 81.75 661.24707031 C78.80621806 665.24149774 75.86397733 669.23704272 72.92480469 673.23486328 C66.99948556 681.29121824 61.06351384 689.33798525 55.03149414 697.31494141 C52.33491009 700.88959702 49.68921095 704.49291717 47.09277344 708.14111328 C40.73455433 717.02956305 34.25351284 725.10820719 26.33496094 732.64892578 C23.36850323 735.50113202 20.69472134 738.48922018 18.03417969 741.62158203 C15.88977625 744.07077377 13.56650498 746.31821009 11.24511719 748.59814453 C9.41269232 750.46329128 7.70158584 752.39867199 5.99511719 754.37939453 C3.21272387 757.6089582 0.2849229 760.61262106 -2.75488281 763.59814453 C-5.20868225 766.09576182 -7.4633505 768.75043996 -9.74707031 771.40283203 C-12.02379359 773.96288087 -14.44659726 776.34508391 -16.91113281 778.72314453 C-18.72618948 780.51645636 -18.72618948 780.51645636 -20.62988281 783.50439453 C-24.37213847 788.14779537 -30.89801369 790.02647653 -36.50488281 791.37939453 C-42.70715403 791.31737182 -47.99506014 787.75612987 -53.31738281 784.87939453 C-54.28353516 784.36763672 -55.2496875 783.85587891 -56.24511719 783.32861328 C-63.32918967 779.55508767 -63.32918967 779.55508767 -64.50488281 778.37939453 C-64.66533048 775.33088879 -64.61798506 772.42507641 -64.50488281 769.37939453 C-64.54355469 767.70490234 -64.54355469 767.70490234 -64.58300781 765.99658203 C-63.91202671 747.84281551 -49.51935409 733.4437173 -38.46191406 720.01220703 C-35.22305856 716.06934655 -32.14623936 712.01013748 -29.06738281 707.94189453 C-24.2265366 701.56305226 -19.24713269 695.31712269 -14.17358398 689.12231445 C-10.00069737 684.01804208 -5.96174483 678.82691488 -1.96191406 673.58642578 C2.00304998 668.39508542 6.06099053 663.27609887 10.10400391 658.14550781 C12.40385951 655.22568411 14.69931245 652.30240366 16.99511719 649.37939453 C19.70848313 645.92510416 22.42237075 642.47123402 25.13964844 639.02001953 C35.19914755 626.23988737 45.24430627 613.45277903 54.96240234 600.41015625 C59.24886988 594.6717979 63.64728766 589.02504861 68.06445312 583.38696289 C71.88593814 578.49363632 75.61773313 573.54212378 79.31176758 568.55200195 C84.67069073 561.31721884 90.04416299 554.36418492 96.23339844 547.81689453 C99.4209846 544.38156851 102.31912557 540.73215276 105.26074219 537.08642578 C108.21314515 533.50947604 111.3160628 530.0844483 114.45214844 526.66845703 C119.44749557 521.27007423 119.44749557 521.27007423 121.49511719 514.37939453 C114.44894113 518.34204848 107.64839773 522.54552856 100.95288086 527.0703125 C94.949761 531.11176842 88.85171887 534.99660337 82.74511719 538.87939453 C73.56214962 544.72494613 64.4733089 550.69228786 55.43261719 556.75439453 C47.83098574 561.85047145 40.21137509 566.89308255 32.41772461 571.69213867 C23.62304748 577.12085196 15.01348376 582.84035895 6.3671875 588.50097656 C1.95689998 591.38543356 -2.46090906 594.25826849 -6.87988281 597.12939453 C-7.70069336 597.66282471 -8.52150391 598.19625488 -9.3671875 598.74584961 C-15.2664376 602.57823929 -21.17185576 606.40103151 -27.0793457 610.22070312 C-35.04734193 615.37411503 -43.00166685 620.54853649 -50.95654297 625.72216797 C-54.30848573 627.90199049 -57.66091829 630.08105892 -61.01342773 632.26000977 C-62.67121692 633.33753212 -64.32893205 634.41516841 -65.98657227 635.49291992 C-70.25168354 638.26584934 -74.51794559 641.03698293 -78.78613281 643.80517578 C-79.66011719 644.37236328 -80.53410156 644.93955078 -81.43457031 645.52392578 C-83.07480325 646.58833226 -84.71539182 647.65219107 -86.35644531 648.71533203 C-87.11699219 649.20904297 -87.87753906 649.70275391 -88.66113281 650.21142578 C-89.83869141 650.95912231 -89.83869141 650.95912231 -91.04003906 651.72192383 C-93.57324459 653.3745019 -93.57324459 653.3745019 -96.06347656 655.43725586 C-105.24755067 662.4855175 -114.34054946 663.31436059 -125.50488281 664.44189453 C-127.29557843 664.65198248 -129.08594962 664.86485526 -130.87597656 665.08056641 C-132.58532972 665.27769104 -134.29495877 665.47244112 -136.00488281 665.66455078 C-136.79967041 665.75398453 -137.59445801 665.84341827 -138.41333008 665.93556213 C-142.02933643 666.29804154 -145.04436369 666.53108669 -148.50488281 665.37939453 C-150.61816406 663.52392578 -150.61816406 663.52392578 -152.81738281 661.19189453 C-155.89048002 657.90733297 -155.89048002 657.90733297 -159.35791016 655.06762695 C-164.24390721 651.52395705 -164.24390721 651.52395705 -164.98657227 648.2668457 C-165.0059472 645.81914572 -164.80821015 643.49543305 -164.50488281 641.06689453 C-164.43398437 640.26316406 -164.36308594 639.45943359 -164.29003906 638.63134766 C-164.14121968 637.00869422 -163.96524484 635.38830999 -163.76269531 633.77148438 C-163.46527067 631.40017671 -163.46527067 631.40017671 -163.49707031 629.08496094 C-163.34901794 622.99762902 -161.10772179 619.83786322 -156.90332031 615.52685547 C-152.87494517 611.92001633 -148.53353784 608.94435378 -144.00488281 606.00439453 C-142.03465254 604.69346438 -140.06460137 603.38226502 -138.09472656 602.07080078 C-137.13679199 601.43932129 -136.17885742 600.8078418 -135.19189453 600.15722656 C-131.62071316 597.79439331 -128.09050036 595.37555073 -124.56738281 592.94189453 C-123.94855225 592.51739014 -123.32972168 592.09288574 -122.69213867 591.65551758 C-118.77549377 588.96495282 -114.88505056 586.23950499 -111.00488281 583.49658203 C-99.77035948 575.57258909 -88.51752996 568.06339119 -76.50488281 561.37939453 C-75.53099609 560.83492676 -74.55710938 560.29045898 -73.55371094 559.72949219 C-67.87011568 556.5542271 -62.17879927 553.39315848 -56.48144531 550.24267578 C-49.93531534 546.62258826 -43.40477705 542.97510209 -36.87988281 539.31689453 C-35.85846191 538.74430908 -34.83704102 538.17172363 -33.78466797 537.58178711 C-31.72520569 536.42718095 -29.66579802 535.27247736 -27.60644531 534.11767578 C-24.46936117 532.35948631 -21.33106408 530.60348109 -18.19238281 528.84814453 C-8.1178384 523.21303195 1.94919829 517.56540535 11.99511719 511.87939453 C19.9427581 507.38101338 27.90117804 502.90244107 35.87011719 498.44189453 C36.8967749 497.86705322 37.92343262 497.29221191 38.98120117 496.69995117 C44.43472291 493.64769906 49.8911651 490.6007704 55.35058594 487.55908203 C56.47352051 486.93251709 57.59645508 486.30595215 58.75341797 485.66040039 C60.89276553 484.4667981 63.03300831 483.27479834 65.17431641 482.0847168 C75.1966208 477.27153972 75.1966208 477.27153972 83.05761719 469.94189453 C83.58287782 466.86536794 83.06151512 464.42955231 82.49511719 461.37939453 C81.70202148 461.3895459 80.90892578 461.39969727 80.09179688 461.41015625 C70.85193349 461.47470619 61.67870495 461.10658486 52.45361328 460.63970947 C37.42564045 459.8889204 22.39655539 459.31390333 7.35449219 458.94189453 C6.64636005 458.92436127 5.93822792 458.906828 5.20863724 458.88876343 C2.26216464 458.81611132 -0.68432183 458.74404437 -3.63081932 458.67240906 C-49.3556078 457.56031538 -95.03796318 455.67408974 -140.7243042 453.51081848 C-143.47551111 453.38078278 -146.22676318 453.25174288 -148.97802734 453.1229248 C-159.14913697 452.64550219 -169.31893172 452.14770448 -179.48748779 451.61859131 C-182.5325081 451.46035517 -185.57772839 451.30832155 -188.62335205 451.16217041 C-214.87851715 449.89221784 -214.87851715 449.89221784 -226.64941406 447.56298828 C-227.76571701 447.35071594 -227.76571701 447.35071594 -228.90457153 447.13415527 C-236.48286286 445.40675146 -239.53563122 440.60460748 -243.50488281 434.37939453 C-244.40519227 433.26828252 -245.32267553 432.17091488 -246.25488281 431.08642578 C-254.13681803 421.84455536 -254.13681803 421.84455536 -254.25488281 416.50439453 C-254.05175781 414.57470703 -254.05175781 414.57470703 -253.50488281 412.37939453 C-253.3081044 411.30226196 -253.11132599 410.22512939 -252.90858459 409.11535645 C-250.32519728 402.2396534 -244.10162975 398.68630472 -237.78498459 395.33187866 C-232.01682832 392.92230319 -226.15365355 393.75762843 -220.1057415 394.57380676 C-217.47714534 394.92751785 -214.84896208 395.20296876 -212.20948792 395.46276855 C-209.25120165 395.75542668 -206.29429179 396.05362341 -203.33882427 396.37363434 C-191.05434715 397.69970009 -178.73188558 398.46048005 -166.40452194 399.26309204 C-160.07957429 399.67610967 -153.75630121 400.11370342 -147.43280911 400.54832649 C-143.83248373 400.79544003 -140.23203081 401.0406814 -136.6315918 401.28613281 C-130.8512357 401.68043964 -125.07096828 402.07602134 -119.29077148 402.47265625 C-111.45929041 403.01001783 -103.62767572 403.54539992 -95.7959621 404.0793612 C-93.69039632 404.22301356 -91.58485232 404.36698186 -89.47931099 404.51099205 C-75.60829033 405.45887298 -61.73704702 406.38706872 -47.85620117 407.18139648 C-22.53438845 408.63315018 2.60485736 410.72300087 27.80761719 413.56689453 C34.34393364 414.30305184 40.88110307 415.03021704 47.42089844 415.73486328 C48.56999884 415.85901926 48.56999884 415.85901926 49.74231339 415.98568344 C61.3474735 417.22311543 72.82187316 417.88652526 84.49511719 417.37939453 C84.82511719 416.05939453 85.15511719 414.73939453 85.49511719 413.37939453 C75.3374893 405.12632188 64.51946247 397.97970169 53.60816956 390.77223206 C47.7317296 386.88490611 41.9000941 382.93228783 36.07116699 378.97421265 C32.81388887 376.76253322 29.55480687 374.55351444 26.29589844 372.34423828 C25.60797211 371.87784439 24.92004578 371.4114505 24.21127319 370.93092346 C0.08148883 354.57380438 -24.05310616 338.23365724 -48.47373962 322.31300354 C-57.11757451 316.67759026 -65.75397405 311.03093633 -74.37991333 305.36816406 C-76.3037955 304.10656266 -78.22894123 302.84688553 -80.15548706 301.58935547 C-91.35799949 294.27616454 -102.28124383 286.75123291 -112.89572144 278.6065979 C-116.33867298 275.9808813 -119.86035647 273.4633915 -123.37988281 270.94189453 C-124.89431012 269.8534981 -126.40862979 268.76495189 -127.92285156 267.67626953 C-128.67743652 267.13421875 -129.43202148 266.59216797 -130.20947266 266.03369141 C-132.51793177 264.36999018 -134.81901263 262.69655511 -137.11816406 261.02001953 C-144.19864864 255.86475816 -151.30079811 250.80124448 -158.62988281 246.00439453 C-163.98332316 242.46549162 -169.01281395 238.98237867 -173.50488281 234.37939453 C-174.33761719 233.65494141 -175.17035156 232.93048828 -176.02832031 232.18408203 C-183.65105455 224.3378072 -185.13194449 215.48538494 -186.69238281 205.00439453 C-186.85267471 203.93476974 -186.85267471 203.93476974 -187.01620483 202.84353638 C-188.02325896 195.88063335 -188.93442644 189.36596217 -187.50488281 182.37939453 C-185.68457031 180.00830078 -185.68457031 180.00830078 -183.37988281 177.94189453 C-176.1772346 171.39710971 -176.1772346 171.39710971 -170.51708984 163.56640625 C-169.0227225 161.2034268 -167.87732906 159.89193095 -165.50488281 158.37939453 C-160.91954114 157.7948924 -156.50636291 158.09120681 -151.9296875 158.54101562 C-149.77635418 158.75228789 -147.62416689 158.91248629 -145.46582031 159.06298828 C-134.37699007 159.90896721 -124.99499764 161.24436562 -116.44238281 168.75439453 C-115.15365754 169.83447853 -113.86322524 170.9125283 -112.57128906 171.98876953 C-111.90887207 172.54628906 -111.24645508 173.10380859 -110.56396484 173.67822266 C-107.08093933 176.5558278 -103.480199 179.27603624 -99.87988281 182.00439453 C-98.43837135 183.10191261 -96.99696333 184.19956656 -95.55566406 185.29736328 C-94.86682129 185.82120605 -94.17797852 186.34504883 -93.46826172 186.88476562 C-84.65036068 193.59742294 -75.90129224 200.3986439 -67.1574707 207.20727539 C-61.75024142 211.41607467 -56.32496499 215.60008339 -50.88769531 219.77001953 C-48.3719973 221.70470751 -45.86994605 223.65612938 -43.37207031 225.61376953 C-33.34245805 233.46851162 -23.1803491 241.11172756 -12.89599609 248.62939453 C-8.92476473 251.53584607 -4.96542213 254.4584 -1.00488281 257.37939453 C0.57839324 258.54613893 2.16172659 259.71280559 3.74511719 260.87939453 C13.24511719 267.87939453 22.74511719 274.87939453 32.24511719 281.87939453 C33.02967285 282.45737793 33.81422852 283.03536133 34.62255859 283.63085938 C36.19817993 284.79206539 37.77337876 285.95384492 39.34814453 287.11621094 C43.42111014 290.12138312 47.50200296 293.1147942 51.59667969 296.09033203 C53.27158604 297.31110032 54.94607307 298.53244414 56.62011719 299.75439453 C57.41949707 300.33648682 58.21887695 300.9185791 59.04248047 301.51831055 C63.94563176 305.12551805 68.47211463 308.83215571 72.70605469 313.21923828 C74.52570009 314.66818807 74.52570009 314.66818807 77.22167969 314.07080078 C77.97191406 313.84263672 78.72214844 313.61447266 79.49511719 313.37939453 C80.82441804 310.49169417 80.82441804 310.49169417 79.57739258 308.20410156 C79.08746826 307.35702637 78.59754395 306.50995117 78.09277344 305.63720703 C77.54057129 304.66879883 76.98836914 303.70039063 76.41943359 302.70263672 C75.80503418 301.6472168 75.19063477 300.59179688 74.55761719 299.50439453 C73.58917774 297.80931707 72.62077657 296.11421688 71.6541748 294.41809082 C70.97577174 293.22852046 70.29613946 292.03965036 69.61535645 290.85144043 C66.21563243 284.91456141 62.90710844 278.92896677 59.61193848 272.93359375 C58.61168412 271.11405412 57.60980308 269.2954195 56.60742188 267.47705078 C53.88200923 262.53266074 51.15920582 257.58683675 48.43798828 252.64013672 C36.23800613 230.4635979 23.88361313 208.3924432 11.09667969 186.54736328 C7.36880786 180.1737408 3.68003781 173.77791678 -0.00488281 167.37939453 C-1.89121604 164.10824451 -3.77817366 160.83745588 -5.66552734 157.56689453 C-6.8675467 155.48386231 -8.06906564 153.40054122 -9.27001953 151.31689453 C-15.94787322 139.74320396 -22.75215704 128.25985058 -29.75488281 116.87939453 C-30.43147949 115.77337891 -31.10807617 114.66736328 -31.80517578 113.52783203 C-34.60291528 108.97576384 -37.39839275 104.45524281 -40.49316406 100.09814453 C-50.53149704 85.76530798 -53.64373073 68.39837641 -56.50488281 51.37939453 C-56.81039062 49.7184375 -56.81039062 49.7184375 -57.12207031 48.02392578 C-57.89015959 39.58658141 -54.87733622 35.02695923 -49.75390625 28.76806641 C-48.59906522 27.38331727 -47.4424287 26.00006392 -46.28417969 24.61816406 C-44.40948898 22.2593669 -42.74331553 19.82674742 -41.08300781 17.31298828 C-30.32854543 1.17288442 -30.32854543 1.17288442 -20.31738281 -1.29638672 C-13.39041643 -1.88546275 -6.83656925 -1.12498793 0 0 Z " fill="#D77756" transform="translate(253.5048828125,5.62060546875)"/>
<path d="M0 0 C0.33 0.99 0.66 1.98 1 3 C1.78375 2.505 2.5675 2.01 3.375 1.5 C7.85089011 -0.35209246 12.22925497 -1.19662252 17 0 C18.32 1.65 19.64 3.3 21 5 C9.12 5 -2.76 5 -15 5 C-15 4.34 -15 3.68 -15 3 C-9.8531808 -0.16727335 -5.841744 -0.35050464 0 0 Z " fill="#C17F68" transform="translate(255,459)"/>
<path d="M0 0 C1.11375 0.495 1.11375 0.495 2.25 1 C5.13883312 2.22782871 5.13883312 2.22782871 9 2 C9.33 1.34 9.66 0.68 10 0 C13.63 0 17.26 0 21 0 C21 1.32 21 2.64 21 4 C6.3045475 4.14630428 -8.32210248 3.71451184 -23 3 C-23 2.67 -23 2.34 -23 2 C-15.41 2 -7.82 2 0 2 C0 1.34 0 0.68 0 0 Z " fill="#C47E64" transform="translate(202,459)"/>
<path d="M0 0 C0.33 0 0.66 0 1 0 C1.4519779 10.72192025 0.1148557 21.3540176 -1 32 C-1.33 32 -1.66 32 -2 32 C-2.1964031 28.70880065 -2.38060745 25.41703066 -2.5625 22.125 C-2.61857422 21.18785156 -2.67464844 20.25070312 -2.73242188 19.28515625 C-2.78076172 18.38925781 -2.82910156 17.49335937 -2.87890625 16.5703125 C-2.9260376 15.74289551 -2.97316895 14.91547852 -3.02172852 14.06298828 C-3 12 -3 12 -2 10 C-1.69208131 7.66922657 -1.49104726 5.33758104 -1.28125 2.99609375 C-1 1 -1 1 0 0 Z " fill="#BE7D66" transform="translate(463,606)"/>
<path d="M0 0 C0.66 0 1.32 0 2 0 C2.12109311 7.07721931 1.85373239 13.97195301 1 21 C0.34 21 -0.32 21 -1 21 C-3.03551543 13.76984919 -2.06632798 7.10300242 0 0 Z " fill="#C57D65" transform="translate(454,692)"/>
<path d="M0 0 C1.43739513 -0.02712066 2.87493863 -0.04645067 4.3125 -0.0625 C5.51326172 -0.07990234 5.51326172 -0.07990234 6.73828125 -0.09765625 C9 0 9 0 12 1 C12 1.66 12 2.32 12 3 C13.258125 2.79375 14.51625 2.5875 15.8125 2.375 C19.4014758 1.78664331 19.75073878 1.83382585 23 4 C20.12493579 4.02712325 17.25013092 4.04689851 14.375 4.0625 C13.16263672 4.07506836 13.16263672 4.07506836 11.92578125 4.08789062 C7.49658082 4.1058955 3.36116576 3.89622662 -1 3 C-0.67 2.01 -0.34 1.02 0 0 Z " fill="#C57D66" transform="translate(49,452)"/>
<path d="M0 0 C1.33332095 2.6666419 0.67102033 4.16680303 0 7 C-0.86625 7.0928125 -0.86625 7.0928125 -1.75 7.1875 C-5.82600839 8.65939192 -7.67635257 12.51452885 -10 16 C-10.45601261 18.50896686 -10.45601261 18.50896686 -10.625 21.1875 C-10.69976562 22.08855469 -10.77453125 22.98960937 -10.8515625 23.91796875 C-10.90054688 24.60503906 -10.94953125 25.29210937 -11 26 C-11.33 26 -11.66 26 -12 26 C-14.01401484 16.79307502 -14.01401484 16.79307502 -11.71875 12.734375 C-9.90015027 10.70839109 -7.98980846 8.85715456 -6 7 C-4.83734083 5.68131298 -3.69009239 4.34879472 -2.5625 3 C-1.716875 2.01 -0.87125 1.02 0 0 Z " fill="#D2765D" transform="translate(78,175)"/>
<path d="M0 0 C0.66 0.33 1.32 0.66 2 1 C3.1103121 6.46776336 3.33967211 12.45202213 3 18 C2.34 18.99 1.68 19.98 1 21 C0.34 21 -0.32 21 -1 21 C-1.12109311 13.92278069 -0.85373239 7.02804699 0 0 Z " fill="#C37D65" transform="translate(457,85)"/>
<path d="M0 0 C0.79921875 0.01804687 1.5984375 0.03609375 2.421875 0.0546875 C3.02515625 0.07789063 3.6284375 0.10109375 4.25 0.125 C4.25 1.445 4.25 2.765 4.25 4.125 C-0.7 4.125 -5.65 4.125 -10.75 4.125 C-7.39832785 0.77332785 -4.70736727 -0.13845198 0 0 Z " fill="#C47E66" transform="translate(234.75,458.875)"/>
<path d="M0 0 C7.74136601 -0.10920422 15.31395526 0.02840067 23 1 C22.67 1.66 22.34 2.32 22 3 C17.91937179 3.84692284 14.97558078 4.05613152 11 3 C8.67639338 2.75019246 6.35326038 2.56080272 4.0234375 2.37890625 C2 2 2 2 0 0 Z " fill="#C17E66" transform="translate(119,408)"/>
<path d="M0 0 C0.33 0 0.66 0 1 0 C1 1.65 1 3.3 1 5 C0.41734375 5.24492188 -0.1653125 5.48984375 -0.765625 5.7421875 C-3.36302236 7.20435874 -4.83975831 8.84740414 -6.75 11.125 C-7.36359375 11.84945312 -7.9771875 12.57390625 -8.609375 13.3203125 C-9.06828125 13.87460937 -9.5271875 14.42890625 -10 15 C-10.66 14.67 -11.32 14.34 -12 14 C-10.02546836 11.66270866 -8.04462531 9.33085338 -6.0625 7 C-5.49853516 6.33226562 -4.93457031 5.66453125 -4.35351562 4.9765625 C-3.54624023 4.02910156 -3.54624023 4.02910156 -2.72265625 3.0625 C-2.22515869 2.47597656 -1.72766113 1.88945313 -1.21508789 1.28515625 C-0.81410889 0.86105469 -0.41312988 0.43695312 0 0 Z " fill="#D27762" transform="translate(357,545)"/>
<path d="M0 0 C4.29 0 8.58 0 13 0 C13 0.99 13 1.98 13 3 C12 4 12 4 9.3125 4.25 C5.56432206 3.96711865 3.23780683 2.85017533 0 1 C0 0.67 0 0.34 0 0 Z " fill="#C37E68" transform="translate(734,472)"/>
<path d="M0 0 C0.33 0 0.66 0 1 0 C0.85761163 2.04190981 0.71092972 4.08352045 0.5625 6.125 C0.48128906 7.26195313 0.40007813 8.39890625 0.31640625 9.5703125 C0.02269035 12.7540478 -0.43124313 15.85510907 -1 19 C-1.33 19 -1.66 19 -2 19 C-2.25011345 16.77308629 -2.47428352 14.54324878 -2.6875 12.3125 C-2.81511719 11.07113281 -2.94273437 9.82976562 -3.07421875 8.55078125 C-2.99368508 4.69788082 -2.33335713 3.01319946 0 0 Z " fill="#C27E67" transform="translate(527,116)"/>
<path d="M0 0 C0.66 0 1.32 0 2 0 C0.66666667 3.33333333 -0.66666667 6.66666667 -2 10 C-4.31 10.33 -6.62 10.66 -9 11 C-8.60167969 10.54109375 -8.20335938 10.0821875 -7.79296875 9.609375 C-4.39984291 5.68325173 -4.39984291 5.68325173 -1.25 1.5625 C-0.8375 1.046875 -0.425 0.53125 0 0 Z " fill="#CF7963" transform="translate(88,164)"/>
<path d="M0 0 C6.27 0 12.54 0 19 0 C19 0.33 19 0.66 19 1 C17.2508503 1.33776684 15.50063855 1.67003671 13.75 2 C12.28820312 2.2784375 12.28820312 2.2784375 10.796875 2.5625 C6.49493213 3.23542961 3.7549239 3.1456708 0 1 C0 0.67 0 0.34 0 0 Z " fill="#C07F69" transform="translate(319,424)"/>
<path d="M0 0 C0.33 0 0.66 0 1 0 C1.86182357 6.03276501 2.53718396 12.01166595 1 18 C0.34 18.33 -0.32 18.66 -1 19 C-1.12086218 12.56744599 -0.82351864 6.38226945 0 0 Z " fill="#C37F67" transform="translate(441,251)"/>
<path d="M0 0 C0.33 0 0.66 0 1 0 C1.223293 2.06093408 1.42802887 4.1238839 1.625 6.1875 C1.74101562 7.33605469 1.85703125 8.48460937 1.9765625 9.66796875 C2.00023426 13.03330416 1.47419799 15.01221706 0 18 C-0.66 18 -1.32 18 -2 18 C-1.48758893 11.97099313 -0.930215 5.97995357 0 0 Z " fill="#C37D64" transform="translate(410,626)"/>
<path d="M0 0 C1.24675325 4.98701299 1.24675325 4.98701299 0 8 C-0.99 8.33 -1.98 8.66 -3 9 C-4.37195574 10.29355827 -5.71182656 11.62298702 -7 13 C-7.66 12.67 -8.32 12.34 -9 12 C-6.03 8.04 -3.06 4.08 0 0 Z " fill="#CC7A61" transform="translate(302,614)"/>
<path d="M0 0 C0.625 1.875 0.625 1.875 1 4 C-1 6 -1 6 -3.625 6.125 C-4.40875 6.08375 -5.1925 6.0425 -6 6 C-6 4.35 -6 2.7 -6 1 C-4 0 -4 0 0 0 Z " fill="#C4805A" transform="translate(668,368)"/>
<path d="M0 0 C0.66 0 1.32 0 2 0 C1.85764543 1.72945653 1.71095618 3.45855654 1.5625 5.1875 C1.48128906 6.15042969 1.40007812 7.11335937 1.31640625 8.10546875 C1.02333849 10.78649602 0.57296246 13.3662986 0 16 C-0.33 16 -0.66 16 -1 16 C-1.02692484 13.70839681 -1.04636124 11.41670454 -1.0625 9.125 C-1.07410156 7.84882813 -1.08570313 6.57265625 -1.09765625 5.2578125 C-1 2 -1 2 0 0 Z " fill="#C17D63" transform="translate(502,244)"/>
<path d="M0 0 C6.73742646 -0.11044961 13.29980211 0.29867087 20 1 C20 1.33 20 1.66 20 2 C17.79317093 2.22370596 15.58440027 2.42830391 13.375 2.625 C11.53035156 2.79902344 11.53035156 2.79902344 9.6484375 2.9765625 C5.94681886 3.00034163 3.40982003 2.37441976 0 1 C0 0.67 0 0.34 0 0 Z " fill="#C07E63" transform="translate(575,464)"/>
<path d="M0 0 C0.33 1.32 0.66 2.64 1 4 C0.360625 4.433125 -0.27875 4.86625 -0.9375 5.3125 C-3.26746003 6.91239177 -3.26746003 6.91239177 -4 10 C-4.66 10 -5.32 10 -6 10 C-6 10.99 -6 11.98 -6 13 C-6.99 13.33 -7.98 13.66 -9 14 C-7.65070536 10.16336928 -5.92248975 7.34827431 -3.375 4.1875 C-2.42753906 3.00220703 -2.42753906 3.00220703 -1.4609375 1.79296875 C-0.97882813 1.20128906 -0.49671875 0.60960937 0 0 Z " fill="#CB7963" transform="translate(210,732)"/>
<path d="M0 0 C2.64 0.33 5.28 0.66 8 1 C7.67 1.66 7.34 2.32 7 3 C6.34 3 5.68 3 5 3 C4.67 3.99 4.34 4.98 4 6 C3.34 5.67 2.68 5.34 2 5 C2 4.34 2 3.68 2 3 C1.01 2.67 0.02 2.34 -1 2 C-0.67 1.34 -0.34 0.68 0 0 Z " fill="#C07E64" transform="translate(18,400)"/>
<path d="M0 0 C-0.66 4.29 -1.32 8.58 -2 13 C-2.33 13 -2.66 13 -3 13 C-3 9.7 -3 6.4 -3 3 C-3.66 3 -4.32 3 -5 3 C-5 2.34 -5 1.68 -5 1 C-2 0 -2 0 0 0 Z " fill="#C37B61" transform="translate(512,205)"/>
<path d="M0 0 C0.33 0 0.66 0 1 0 C1.91464004 4.66466418 2.36608693 7.76594971 0 12 C-0.99 12.495 -0.99 12.495 -2 13 C-1.85851011 11.3954444 -1.71164314 9.79136233 -1.5625 8.1875 C-1.48128906 7.29417969 -1.40007812 6.40085937 -1.31640625 5.48046875 C-1 3 -1 3 0 0 Z " fill="#BF7F6B" transform="translate(386,749)"/>
<path d="M0 0 C3.3 0.33 6.6 0.66 10 1 C7.50494038 3.49505962 6.32671112 3.35948376 2.875 3.625 C1.96492187 3.69976562 1.05484375 3.77453125 0.1171875 3.8515625 C-0.93082031 3.92503906 -0.93082031 3.92503906 -2 4 C-1.34 2.68 -0.68 1.36 0 0 Z " fill="#C67A5E" transform="translate(686,428)"/>
<path d="M0 0 C2.25245881 2.68841859 3.88213958 4.64641875 5 8 C2.83125748 7.49396008 1.00032373 7.00016187 -1 6 C-0.67 4.02 -0.34 2.04 0 0 Z " fill="#D47565" transform="translate(643,712)"/>
<path d="M0 0 C0.33 0 0.66 0 1 0 C1.05391993 1.79133978 1.09275571 3.58313899 1.125 5.375 C1.14820313 6.37273438 1.17140625 7.37046875 1.1953125 8.3984375 C1 11 1 11 -1 13 C-2.51403812 8.15507803 -1.36602172 4.7408989 0 0 Z " fill="#C57D64" transform="translate(662,766)"/>
<path d="M0 0 C1.32 0.33 2.64 0.66 4 1 C4 1.66 4 2.32 4 3 C4.99 3.33 5.98 3.66 7 4 C6.67 5.32 6.34 6.64 6 8 C1.125 3.375 1.125 3.375 0 0 Z " fill="#D17A65" transform="translate(583,751)"/>
<path d="M0 0 C1.32 0.33 2.64 0.66 4 1 C4.33 2.65 4.66 4.3 5 6 C5.66 6 6.32 6 7 6 C7 6.66 7 7.32 7 8 C4.13792848 6.71700242 1.9754912 5.469364 0 3 C0 2.01 0 1.02 0 0 Z " fill="#DB7262" transform="translate(618,625)"/>
<path d="M0 0 C4.95 0.33 9.9 0.66 15 1 C15 1.33 15 1.66 15 2 C10.05 2.33 5.1 2.66 0 3 C0 2.01 0 1.02 0 0 Z " fill="#C47E63" transform="translate(255,417)"/>
<path d="M0 0 C3 3.75 3 3.75 3 6 C1.02 6 -0.96 6 -3 6 C-2.67 4.68 -2.34 3.36 -2 2 C-1.34 2 -0.68 2 0 2 C0 1.34 0 0.68 0 0 Z " fill="#C77E5E" transform="translate(301,50)"/>
<path d="M0 0 C0.33 0 0.66 0 1 0 C1.02696365 1.79158489 1.04637917 3.58328473 1.0625 5.375 C1.07410156 6.37273438 1.08570313 7.37046875 1.09765625 8.3984375 C1 11 1 11 0 13 C-0.66 13 -1.32 13 -2 13 C-1.34 8.71 -0.68 4.42 0 0 Z " fill="#C47C65" transform="translate(394,708)"/>
<path d="M0 0 C-0.61875 0.28875 -1.2375 0.5775 -1.875 0.875 C-4.13325765 1.93720042 -4.13325765 1.93720042 -6 4 C-8.72869407 3.96712417 -11.2966618 3.43602229 -14 3 C-14 2.67 -14 2.34 -14 2 C-4.58997722 -0.29612756 -4.58997722 -0.29612756 0 0 Z " fill="#C87C62" transform="translate(650,372)"/>
<path d="M0 0 C-1.32 1.32 -2.64 2.64 -4 4 C-4.33 3.67 -4.66 3.34 -5 3 C-7.32817964 2.63239269 -9.6618385 2.29758419 -12 2 C-12 1.67 -12 1.34 -12 1 C-7.93631321 0.22596442 -4.13574827 -0.0984702 0 0 Z " fill="#C97C63" transform="translate(799,344)"/>
<path d="M0 0 C0.33 0.99 0.66 1.98 1 3 C-0.21484375 4.82421875 -0.21484375 4.82421875 -1.9375 6.6875 C-2.50339844 7.31011719 -3.06929688 7.93273437 -3.65234375 8.57421875 C-4.09707031 9.04472656 -4.54179687 9.51523437 -5 10 C-5.66 9.67 -6.32 9.34 -7 9 C-4.69 6.03 -2.38 3.06 0 0 Z " fill="#D47663" transform="translate(316,596)"/>
<path d="M0 0 C3.16115776 1.36983503 3.9927092 1.9890638 6 5 C3 6 3 6 0 5 C0 3.35 0 1.7 0 0 Z " fill="#D17865" transform="translate(594,537)"/>
<path d="M0 0 C0.66 0 1.32 0 2 0 C1.979375 0.9075 1.95875 1.815 1.9375 2.75 C1.9889755 5.42672588 2.2215017 7.46988052 3 10 C0.74754119 7.31158141 -0.88213958 5.35358125 -2 2 C-1.34 2 -0.68 2 0 2 C0 1.34 0 0.68 0 0 Z " fill="#CE7A5D" transform="translate(524,658)"/>
<path d="M0 0 C2.475 0.495 2.475 0.495 5 1 C4.67 2.65 4.34 4.3 4 6 C3.34 6 2.68 6 2 6 C1.34 4.02 0.68 2.04 0 0 Z " fill="#DD715C" transform="translate(506,634)"/>
<path d="M0 0 C0.33 0 0.66 0 1 0 C2.33928571 8.03571429 2.33928571 8.03571429 0 12 C-0.19401633 10.18818595 -0.38004375 8.37551468 -0.5625 6.5625 C-0.66691406 5.55316406 -0.77132812 4.54382813 -0.87890625 3.50390625 C-0.91886719 2.67761719 -0.95882812 1.85132813 -1 1 C-0.67 0.67 -0.34 0.34 0 0 Z " fill="#C77D61" transform="translate(66,189)"/>
<path d="M0 0 C1.98 1.65 3.96 3.3 6 5 C3.92446352 5.5534764 2.15634036 6 0 6 C0 4.02 0 2.04 0 0 Z " fill="#D17764" transform="translate(690,624)"/>
<path d="M0 0 C2.64 0 5.28 0 8 0 C8 0.66 8 1.32 8 2 C3.545 2.495 3.545 2.495 -1 3 C-0.67 2.01 -0.34 1.02 0 0 Z " fill="#C37E5D" transform="translate(725,421)"/>
<path d="M0 0 C0.33 0.99 0.66 1.98 1 3 C-3.75 7.875 -3.75 7.875 -6 9 C-4.47291037 5.56404834 -2.40072955 2.88087546 0 0 Z " fill="#CD7965" transform="translate(580,204)"/>
<path d="M0 0 C0 0.99 0 1.98 0 3 C-1.98 3.33 -3.96 3.66 -6 4 C-6.33 3.34 -6.66 2.68 -7 2 C-4.35261084 0.5393715 -3.10551666 0 0 0 Z " fill="#BF7F6C" transform="translate(112,668)"/>
<path d="M0 0 C1.32 0 2.64 0 4 0 C4.66 1.65 5.32 3.3 6 5 C4.02 4.34 2.04 3.68 0 3 C0 2.01 0 1.02 0 0 Z " fill="#D47465" transform="translate(578,619)"/>
<path d="M0 0 C0.66 0.33 1.32 0.66 2 1 C2.1875 4.375 2.1875 4.375 2 8 C1.01 8.66 0.02 9.32 -1 10 C-0.67 6.7 -0.34 3.4 0 0 Z " fill="#BF8162" transform="translate(417,579)"/>
<path d="M0 0 C0.33 0.99 0.66 1.98 1 3 C-0.65 4.65 -2.3 6.3 -4 8 C-4.66 7.67 -5.32 7.34 -6 7 C-4.02 4.69 -2.04 2.38 0 0 Z " fill="#C87E61" transform="translate(351,552)"/>
<path d="M0 0 C0.66 1.32 1.32 2.64 2 4 C-1.3 3.34 -4.6 2.68 -8 2 C-8 1.67 -8 1.34 -8 1 C-5.36 0.67 -2.72 0.34 0 0 Z " fill="#C77B63" transform="translate(743,540)"/>
<path d="M0 0 C2.97 0 5.94 0 9 0 C8.67 0.66 8.34 1.32 8 2 C2.55072464 3.27536232 2.55072464 3.27536232 0 2 C0 1.34 0 0.68 0 0 Z " fill="#C07A6A" transform="translate(242,416)"/>
</svg>
