<?xml version="1.0" encoding="UTF-8"?>
<svg version="1.1" xmlns="http://www.w3.org/2000/svg" width="500" height="500">
<path d="M0 0 C3.50655495 0.00688487 7.01306805 -0.00373666 10.51961422 -0.01193976 C17.36212158 -0.0251803 24.20452943 -0.02244302 31.04704046 -0.01370184 C36.6151771 -0.00688717 42.18328612 -0.00602479 47.75142574 -0.00927329 C48.54822046 -0.00973299 49.34501518 -0.01019269 50.16595519 -0.01066632 C51.78534715 -0.01162563 53.40473911 -0.01259827 55.02413106 -0.01358409 C70.15853457 -0.02210962 85.29288329 -0.01234862 100.4272778 0.00381701 C113.37314342 0.0172176 126.31892828 0.0148887 139.26479244 0.00106072 C154.35031046 -0.01504549 169.43578062 -0.02128592 184.52130604 -0.01210248 C186.13426748 -0.01114698 187.74722893 -0.01020387 189.36019039 -0.00927329 C190.55016091 -0.00857905 190.55016091 -0.00857905 191.76417124 -0.00787079 C197.31641243 -0.00529597 202.86862291 -0.00961907 208.42085934 -0.01671195 C215.20036882 -0.02518346 221.97977431 -0.02272947 228.7592721 -0.00686972 C232.20881996 0.00093787 235.65819533 0.00423561 239.10774136 -0.00581717 C258.53352397 -0.04872118 276.46880758 0.94663319 294.94252682 7.20858026 C297.51919506 8.0526132 299.92794322 8.71913507 302.55580807 9.30233026 C306.73882953 10.31681046 310.17941016 12.08865911 313.86830807 14.26717401 C314.77806393 14.77570916 314.77806393 14.77570916 315.70619869 15.29451776 C319.14092033 17.28204645 321.29101737 19.17268692 323.55580807 22.39217401 C324.54580807 22.72217401 325.53580807 23.05217401 326.55580807 23.39217401 C327.01987057 24.38217401 327.01987057 24.38217401 327.49330807 25.39217401 C327.84393307 26.05217401 328.19455807 26.71217401 328.55580807 27.39217401 C329.88657796 27.73559849 331.22012785 28.06837274 332.55580807 28.39217401 C334.11830807 30.26717401 334.11830807 30.26717401 335.55580807 32.39217401 C337.48992889 34.48747156 339.13597859 35.77895436 341.55580807 37.39217401 C341.89177579 38.72484597 342.22476617 40.0582699 342.55580807 41.39217401 C344.10839485 43.48648059 344.10839485 43.48648059 346.05580807 45.64217401 C361.0045332 63.91283805 369.07481428 87.07476451 368.936759 110.59847283 C368.94143897 111.85012388 368.94611894 113.10177493 368.95094073 114.3913548 C368.96332338 117.82166152 368.95733945 121.25171395 368.94798207 124.6820209 C368.94113892 128.3985219 368.95169865 132.11498194 368.95992184 135.83147454 C368.97320569 143.09476654 368.97040542 150.35796511 368.96168391 157.62126064 C368.9548866 163.52851824 368.95399946 169.4357498 368.95725536 175.34301019 C368.95771506 176.18633175 368.95817476 177.02965331 368.95864839 177.89853007 C368.95960764 179.61215036 368.96058029 181.32577064 368.96156617 183.03939092 C368.97010439 199.07780873 368.96031059 215.11617495 368.94416507 231.15458429 C368.93076331 244.89233532 368.93309185 258.63001028 368.94692135 272.36775994 C368.96300493 288.35193118 368.96928056 304.33605729 368.96008456 320.32023549 C368.95912899 322.02726959 368.95818588 323.73430371 368.95725536 325.44133782 C368.95679254 326.28105577 368.95632971 327.12077371 368.95585286 327.98593765 C368.95327129 333.88060769 368.95761592 339.77524891 368.96469402 345.66991448 C368.97314016 352.86141128 368.97076381 360.05280993 368.95485179 367.2442956 C368.94701072 370.90786422 368.94380557 374.5712697 368.95379925 378.23483682 C368.96450152 382.218656 368.9516546 386.20206942 368.936759 390.18587518 C368.94345116 391.3261759 368.95014333 392.46647662 368.95703828 393.64133191 C368.7916253 416.58572594 359.32407579 440.05978062 344.18471432 457.27889276 C342.42794133 459.35890878 342.42794133 459.35890878 341.48940182 462.06404901 C340.23704095 465.18709118 338.41320438 465.74917113 335.55580807 467.39217401 C334.87312669 468.71737903 334.20510396 470.05029582 333.55580807 471.39217401 C331.61830807 472.45467401 331.61830807 472.45467401 329.55580807 473.39217401 C327.72386608 475.02056688 326.654459 476.19487215 325.55580807 478.39217401 C324.56580807 478.72217401 323.57580807 479.05217401 322.55580807 479.39217401 C321.8017065 480.16045526 321.04760494 480.92873651 320.27065182 481.72029901 C317.39006957 484.55528931 314.67691224 486.247605 311.11830807 488.14217401 C310.02647213 488.73514276 308.93463619 489.32811151 307.80971432 489.93904901 C304.6035378 491.37085892 302.00727195 491.88643251 298.55580807 492.39217401 C296.15102046 493.15620938 293.75580907 493.95072289 291.36830807 494.76717401 C273.51271216 500.48835921 255.73867427 500.83863161 237.11161613 500.78434801 C233.60506118 500.77746315 230.09854808 500.78808467 226.59200191 500.79628778 C219.74949455 500.80952831 212.9070867 500.80679103 206.06457567 500.79804985 C200.49643904 500.79123518 194.92833001 500.7903728 189.36019039 500.7936213 C188.56339568 500.794081 187.76660096 500.7945407 186.94566095 500.79501433 C185.32626898 500.79597364 183.70687702 500.79694629 182.08748507 500.7979321 C166.95308157 500.80645764 151.81873285 500.79669664 136.68433833 500.780531 C123.73847272 500.76713041 110.79268785 500.76945931 97.84682369 500.78328729 C82.76130568 500.7993935 67.67583551 500.80563393 52.5903101 500.7964505 C50.97734865 500.79549499 49.3643872 500.79455188 47.75142574 500.7936213 C46.56145522 500.79292706 46.56145522 500.79292706 45.34744489 500.7922188 C39.7952037 500.78964398 34.24299323 500.79396708 28.6907568 500.80105996 C21.91124731 500.80953147 15.13184183 500.80707748 8.35234404 500.79121773 C4.90279618 500.78341014 1.4534208 500.7801124 -1.99612522 500.79016519 C-21.42190784 500.83306919 -39.35719145 499.83771482 -57.83091068 493.57576776 C-60.40757892 492.73173481 -62.81632709 492.06521294 -65.44419193 491.48201776 C-69.62721339 490.46753755 -73.06779403 488.6956889 -76.75669193 486.51717401 C-77.36319584 486.17815057 -77.96969975 485.83912713 -78.59458256 485.48983026 C-82.0293042 483.50230156 -84.17940123 481.61166109 -86.44419193 478.39217401 C-87.43419193 478.06217401 -88.42419193 477.73217401 -89.44419193 477.39217401 C-89.75356693 476.73217401 -90.06294193 476.07217401 -90.38169193 475.39217401 C-90.73231693 474.73217401 -91.08294193 474.07217401 -91.44419193 473.39217401 C-92.77496183 473.04874952 -94.10851172 472.71597527 -95.44419193 472.39217401 C-97.00669193 470.51717401 -97.00669193 470.51717401 -98.44419193 468.39217401 C-100.37831275 466.29687645 -102.02436246 465.00539366 -104.44419193 463.39217401 C-104.78015966 462.05950204 -105.11315004 460.72607811 -105.44419193 459.39217401 C-106.99677871 457.29786742 -106.99677871 457.29786742 -108.94419193 455.14217401 C-123.89291706 436.87150996 -131.96319814 413.7095835 -131.82514286 390.18587518 C-131.82982283 388.93422413 -131.8345028 387.68257308 -131.83932459 386.39299321 C-131.85170725 382.96268649 -131.84572331 379.53263406 -131.83636594 376.10232711 C-131.82952279 372.38582611 -131.84008252 368.66936608 -131.8483057 364.95287347 C-131.86158956 357.68958147 -131.85878929 350.4263829 -131.85006778 343.16308737 C-131.84327047 337.25582977 -131.84238333 331.34859821 -131.84563923 325.44133782 C-131.84609893 324.59801626 -131.84655863 323.7546947 -131.84703226 322.88581795 C-131.84799151 321.17219765 -131.84896415 319.45857737 -131.84995003 317.74495709 C-131.85848826 301.70653928 -131.84869446 285.66817307 -131.83254893 269.62976372 C-131.81914718 255.89201269 -131.82147571 242.15433773 -131.83530521 228.41658807 C-131.85138879 212.43241683 -131.85766443 196.44829072 -131.84846842 180.46411252 C-131.84751286 178.75707842 -131.84656974 177.05004431 -131.84563923 175.34301019 C-131.8451764 174.50329224 -131.84471358 173.6635743 -131.84423672 172.79841036 C-131.84165516 166.90374032 -131.84599978 161.0090991 -131.85307789 155.11443353 C-131.86152403 147.92293674 -131.85914768 140.73153808 -131.84323566 133.54005241 C-131.83539459 129.87648379 -131.83218944 126.21307831 -131.84218311 122.54951119 C-131.85288539 118.56569201 -131.84003847 114.58227859 -131.82514286 110.59847283 C-131.83183503 109.45817211 -131.83852719 108.31787139 -131.84542215 107.1430161 C-131.68000916 84.19862207 -122.21245965 60.72456739 -107.07309818 43.50545526 C-105.31632519 41.42543923 -105.31632519 41.42543923 -104.37778568 38.72029901 C-103.12542481 35.59725683 -101.30158824 35.03517688 -98.44419193 33.39217401 C-97.76151056 32.06696898 -97.09348783 30.73405219 -96.44419193 29.39217401 C-94.50669193 28.32967401 -94.50669193 28.32967401 -92.44419193 27.39217401 C-90.61224995 25.76378113 -89.54284286 24.58947586 -88.44419193 22.39217401 C-87.45419193 22.06217401 -86.46419193 21.73217401 -85.44419193 21.39217401 C-84.69009037 20.62389276 -83.93598881 19.85561151 -83.15903568 19.06404901 C-80.27845343 16.22905871 -77.5652961 14.53674301 -74.00669193 12.64217401 C-72.914856 12.04920526 -71.82302006 11.45623651 -70.69809818 10.84529901 C-67.49192167 9.41348909 -64.89565581 8.8979155 -61.44419193 8.39217401 C-59.03940433 7.62813863 -56.64419294 6.83362513 -54.25669193 6.01717401 C-36.40109603 0.2959888 -18.62705813 -0.0542836 0 0 Z " fill="#FEFEFE" transform="translate(131.44419193267822,-0.39217400550842285)"/>
<path d="M0 0 C0.99 0.99 0.99 0.99 2 2 C4.01035881 1.73624149 6.01061318 1.39172849 8 1 C24.96526629 0.04469962 40.60173376 0.28854827 56 8 C57.65708984 8.77537109 57.65708984 8.77537109 59.34765625 9.56640625 C66.55930618 12.98188728 72.93806139 16.76201421 79 22 C80.01126953 22.81404297 80.01126953 22.81404297 81.04296875 23.64453125 C89.93443838 30.98816284 95.85087151 39.99798093 101.3359375 49.99609375 C102.97372033 53.04944326 102.97372033 53.04944326 105 56 C105.50186099 57.87361435 105.99504741 59.75028556 106.4296875 61.640625 C107.05039138 64.20846845 107.80880877 66.71818285 108.5625 69.25 C110.17544747 75.15599452 110.73945531 80.89693807 111 87 C111.07927734 88.41732422 111.07927734 88.41732422 111.16015625 89.86328125 C111.43876182 98.8149993 110.29261725 108.7423732 107.19140625 117.20703125 C106.78967537 119.14676351 106.78967537 119.14676351 108.3359375 120.98046875 C109.00882812 121.70878906 109.68171875 122.43710938 110.375 123.1875 C126.98864653 142.94899535 130.16696502 166.00533817 129 191 C126.97871779 213.33663314 113.96384285 233.22246592 97.79296875 248.01953125 C88.5671676 255.60214704 78.74728891 260.63997176 67.375 263.9375 C61.70141079 265.52303967 61.70141079 265.52303967 57.14453125 269.01953125 C56.15132173 271.33431753 55.56435689 273.54782959 55 276 C45.95706404 297.68168503 27.40259871 314.08045079 6 323 C3.23269492 324.04134608 0.4436414 324.9826397 -2.375 325.875 C-3.01646973 326.07818848 -3.65793945 326.28137695 -4.31884766 326.49072266 C-26.05591542 332.96977124 -49.77709806 329.38896274 -69.63061523 319.08398438 C-75.59602149 315.82444923 -81.33214446 312.1525499 -85.7590332 306.92138672 C-89.18830408 303.13438144 -91.70733951 301.20711544 -96.83374023 300.38574219 C-101.31440658 300.18778252 -105.77432824 300.39603406 -110.25 300.625 C-112.56312374 300.71040319 -114.87606479 300.78410713 -117.18988037 300.84799194 C-118.6206197 300.89094547 -120.05102974 300.94797862 -121.48052979 301.02139282 C-125.51565901 301.1823113 -128.3597257 300.7359785 -132 299 C-133.41184277 298.76115442 -134.82931178 298.55386363 -136.25 298.375 C-148.65249927 296.00202555 -160.35222084 288.86969016 -170 281 C-170.65226562 280.48695313 -171.30453125 279.97390625 -171.9765625 279.4453125 C-188.82244354 265.71629051 -199.60499279 243.55059045 -202.68359375 222.25 C-203.75513324 211.24356971 -202.99629275 201.20514485 -200.65625 190.42578125 C-199.5005903 185.17242807 -199.5005903 185.17242807 -201.03125 180.25390625 C-201.5159375 179.69574219 -202.000625 179.13757813 -202.5 178.5625 C-215.65384817 161.93405042 -221.15800825 143.77511921 -221.25 122.8125 C-221.270625 121.65685547 -221.29125 120.50121094 -221.3125 119.31054688 C-221.41839836 95.73492494 -210.21476423 74.88674225 -194.375 58 C-186.11540061 49.96892707 -175.38892556 41.46509225 -163.94921875 39.15234375 C-155.23555921 37.51478 -155.23555921 37.51478 -148.8125 31.953125 C-147.36246396 28.34379615 -146.18524341 24.70338682 -145 21 C-140.46051735 12.13327025 -133.93189524 5.03064019 -127 -2 C-125.92105469 -3.09828125 -125.92105469 -3.09828125 -124.8203125 -4.21875 C-87.99901475 -39.23371994 -35.24859046 -31.35485081 0 0 Z " fill="#050505" transform="translate(296,99)"/>
<path d="M0 0 C3.12121544 0.95109754 5.69899804 2.28273242 8.54638672 3.87890625 C9.67133545 4.50611572 10.79628418 5.1333252 11.95532227 5.77954102 C13.15513999 6.45815662 14.35476169 7.13711889 15.55419922 7.81640625 C16.79075826 8.51064883 18.02749424 9.20457636 19.2644043 9.89819336 C26.49640534 13.96443554 33.66697893 18.11630275 40.74560547 22.4453125 C43.95457942 24.39863849 47.20111032 26.28143457 50.45654297 28.15625 C72.08377903 40.61607524 72.08377903 40.61607524 81.67919922 47.81640625 C82.52095703 48.44160156 83.36271484 49.06679687 84.22998047 49.7109375 C91.9817224 56.37471565 97.00021411 65.41616477 100.67919922 74.81640625 C100.98599609 75.56019531 101.29279297 76.30398437 101.60888672 77.0703125 C107.26762323 91.2710465 105.66856261 108.71126347 100.57763672 122.8828125 C94.98643468 135.850794 86.43831057 147.09551862 74.55419922 154.81640625 C73.98056641 155.19023437 73.40693359 155.5640625 72.81591797 155.94921875 C68.89316492 158.37288768 65.10564149 159.62181282 60.67919922 160.81640625 C60.6777742 159.71251053 60.67634918 158.60861481 60.67488098 157.4712677 C60.65821184 147.06830897 60.6154407 136.66574144 60.54710865 126.26299 C60.51281711 120.91477156 60.48772528 115.56683944 60.48364258 110.21850586 C60.47936432 105.05705171 60.45094052 99.89624367 60.40576744 94.73499107 C60.39277737 92.76586355 60.38849009 90.79665877 60.39304543 88.82749367 C60.39794068 86.06893771 60.37190747 83.31227796 60.33862305 80.55395508 C60.34724869 79.73971573 60.35587433 78.92547638 60.36476135 78.08656311 C60.27927725 73.86067533 60.05876402 72.28645523 57.30937195 68.88163757 C54.56501793 66.72675024 51.86406305 64.99513454 48.80419922 63.31640625 C47.55411898 62.62123802 46.30412535 61.92591402 45.05419922 61.23046875 C44.01585937 60.6586084 44.01585937 60.6586084 42.95654297 60.07519531 C38.55617941 57.64291889 34.18179447 55.16435061 29.80419922 52.69140625 C28.82394775 52.13831787 27.84369629 51.58522949 26.83374023 51.01538086 C17.77559133 45.89390508 8.78313307 40.66392442 -0.19189453 35.3984375 C-4.50330796 32.87067099 -8.83071205 30.37292546 -13.16845703 27.890625 C-14.28164307 27.2505249 -15.3948291 26.6104248 -16.54174805 25.95092773 C-18.69382035 24.71409904 -20.8491655 23.48294417 -23.00805664 22.25805664 C-23.96719971 21.70496826 -24.92634277 21.15187988 -25.91455078 20.58203125 C-26.76726562 20.09508789 -27.61998047 19.60814453 -28.49853516 19.10644531 C-29.09988281 18.68073242 -29.70123047 18.25501953 -30.32080078 17.81640625 C-30.32080078 17.15640625 -30.32080078 16.49640625 -30.32080078 15.81640625 C-29.20838013 15.19596436 -29.20838013 15.19596436 -28.07348633 14.56298828 C-25.3165872 13.02458543 -22.56030861 11.48507825 -19.80444336 9.94482422 C-18.612633 9.27901743 -17.42057788 8.61364856 -16.22827148 7.94873047 C-14.51237394 6.99171883 -12.79743464 6.03298973 -11.08251953 5.07421875 C-10.0508667 4.49816895 -9.01921387 3.92211914 -7.95629883 3.32861328 C-1.89401123 -0.14983131 -1.89401123 -0.14983131 0 0 Z " fill="#FAFAFA" transform="translate(297.32080078125,179.18359375)"/>
<path d="M0 0 C0.01213028 1.64038239 0.01213028 1.64038239 0.02450562 3.31390381 C0.10195095 13.6140633 0.18968624 23.91409045 0.28752708 34.214077 C0.3374979 39.50955327 0.38382796 44.80500951 0.421875 50.10058594 C0.45871775 55.20998545 0.50507511 60.31921774 0.55806351 65.42847443 C0.5766128 67.37889933 0.59171878 69.32936009 0.60334396 71.27983856 C0.62019715 74.00932482 0.64923008 76.73842765 0.68115234 79.46777344 C0.68331253 80.27625732 0.68547272 81.08474121 0.68769836 81.91772461 C0.73762255 87.28140397 0.73762255 87.28140397 3 92 C5.54370223 93.89281697 5.54370223 93.89281697 8.66015625 95.6171875 C9.23297333 95.95076263 9.80579041 96.28433777 10.39596558 96.62802124 C12.27898325 97.72080088 14.17044368 98.79795824 16.0625 99.875 C17.38073512 100.63562181 18.69852002 101.39702441 20.01586914 102.15917969 C29.29521607 107.51335799 38.64088588 112.75037756 48.00488281 117.95483398 C56.8226171 122.86532151 65.51683747 127.96926963 74.18359375 133.140625 C77.11742187 134.89068826 80.06097716 136.61630919 83.03515625 138.296875 C84.68837891 139.23273438 84.68837891 139.23273438 86.375 140.1875 C87.29023438 140.69667969 88.20546875 141.20585937 89.1484375 141.73046875 C90.06496094 142.35888672 90.06496094 142.35888672 91 143 C91 143.66 91 144.32 91 145 C90.43603516 145.30703857 89.87207031 145.61407715 89.29101562 145.93041992 C86.69262673 147.34692492 84.09630946 148.76718745 81.5 150.1875 C80.1696875 150.91163086 80.1696875 150.91163086 78.8125 151.65039062 C73.98664678 154.29396463 69.34314456 156.99760405 64.86914062 160.20825195 C62.20975946 161.33473747 60.73442312 160.84044928 58 160 C55.51831055 158.82348633 55.51831055 158.82348633 52.88671875 157.33203125 C51.40425659 156.4975647 51.40425659 156.4975647 49.8918457 155.64624023 C48.30569458 154.73853882 48.30569458 154.73853882 46.6875 153.8125 C45.58172607 153.18609619 44.47595215 152.55969238 43.33666992 151.91430664 C32.82492321 145.94224916 22.37440396 139.86506424 11.95507812 133.73339844 C8.94998107 131.97065975 5.93676766 130.22248587 2.921875 128.4765625 C0.968627 127.33875279 -0.98450262 126.20073983 -2.9375 125.0625 C-4.25947388 124.30151001 -4.25947388 124.30151001 -5.6081543 123.52514648 C-22.99156791 113.34464814 -36.61833851 99.91214753 -42 80 C-45.86731976 61.10604623 -44.21479084 42.0160602 -33.75390625 25.47265625 C-26.70724537 15.53827688 -13.35271739 0 0 0 Z " fill="#FAFAFA" transform="translate(142,160)"/>
<path d="M0 0 C11.16186141 9.84259758 20.5773463 24.25710862 22.625 39.25 C22.83925853 43.27641752 22.81611588 47.28197446 22.75 51.3125 C22.74097656 52.36888672 22.73195313 53.42527344 22.72265625 54.51367188 C22.6993167 57.09269253 22.66657775 59.6712199 22.625 62.25 C19.23497279 60.95891809 16.10339169 59.49218459 12.94921875 57.703125 C11.60234985 56.94128906 11.60234985 56.94128906 10.22827148 56.1640625 C9.26606689 55.61492187 8.3038623 55.06578125 7.3125 54.5 C5.79474976 53.63761719 5.79474976 53.63761719 4.24633789 52.7578125 C-3.00436608 48.62764345 -10.22746873 44.45069355 -17.4375 40.25 C-18.42484131 39.67717285 -19.41218262 39.1043457 -20.42944336 38.51416016 C-25.47669986 35.57429096 -30.47681534 32.57937751 -35.42578125 29.4765625 C-36.40474365 28.87199219 -37.38370605 28.26742187 -38.39233398 27.64453125 C-40.2380838 26.50160133 -42.07320556 25.34124242 -43.89477539 24.16015625 C-49.76025705 20.55375782 -54.48605885 19.0044841 -61.375 20.25 C-64.08150465 21.35006318 -66.09376986 22.3357934 -68.5 23.875 C-69.86975148 24.69668158 -71.23954615 25.51829117 -72.609375 26.33984375 C-73.35638672 26.79858887 -74.10339844 27.25733398 -74.87304688 27.72998047 C-78.73875192 30.07852454 -82.65959207 32.33058222 -86.57373047 34.59716797 C-93.21823765 38.44699849 -99.84802058 42.31841854 -106.4140625 46.30078125 C-110.70495536 48.886041 -115.08034552 51.28162341 -119.48779297 53.66113281 C-125.81392918 57.14248699 -131.99786663 60.87843959 -138.20507812 64.56640625 C-139.74518555 65.47326172 -139.74518555 65.47326172 -141.31640625 66.3984375 C-142.24138916 66.94677246 -143.16637207 67.49510742 -144.11938477 68.06005859 C-146.375 69.25 -146.375 69.25 -148.375 69.25 C-152.14114988 39.67606667 -152.14114988 39.67606667 -146.43847656 31.45996094 C-140.98879929 26.8171689 -134.46065891 24.29740974 -127.85205078 21.70898438 C-122.05982545 19.27854353 -116.80924938 15.98299731 -111.4375 12.75 C-109.27266573 11.49717222 -107.10467737 10.249779 -104.93359375 9.0078125 C-103.85706543 8.39067383 -102.78053711 7.77353516 -101.67138672 7.13769531 C-100.5835791 6.51475586 -99.49577148 5.89181641 -98.375 5.25 C-97.25754395 4.60901367 -96.14008789 3.96802734 -94.98876953 3.30761719 C-91.66385035 1.40506444 -88.33299144 -0.48663095 -85 -2.375 C-83.51318726 -3.22674805 -83.51318726 -3.22674805 -81.99633789 -4.09570312 C-54.36026407 -19.66532218 -25.73090698 -20.31387393 0 0 Z " fill="#FBFBFB" transform="translate(360.375,138.75)"/>
<path d="M0 0 C0 11.55 0 23.1 0 35 C-27.56508876 50.91994431 -27.56508876 50.91994431 -39.00683594 57.42529297 C-43.88845473 60.2050778 -48.74723462 63.01990945 -53.58984375 65.8671875 C-75.80738308 78.89568821 -95.9613073 89.22816502 -122.625 83.12890625 C-140.67001458 77.39585474 -155.4128688 66.01801621 -164.25 49.1875 C-165.19681102 47.13866303 -166.11407676 45.07589114 -167 43 C-167.41507812 42.0615625 -167.83015625 41.123125 -168.2578125 40.15625 C-172.27835244 29.47229771 -171.37455998 18.24112117 -171 7 C-165.93114394 8.77872636 -161.44173753 11.50631855 -156.8125 14.1875 C-155.44339478 14.9755603 -155.44339478 14.9755603 -154.04663086 15.77954102 C-152.06867525 16.918656 -150.09157526 18.05925768 -148.11523438 19.20117188 C-144.94922723 21.02931769 -141.77968635 22.85120499 -138.609375 24.671875 C-136.99518677 25.6004834 -136.99518677 25.6004834 -135.34838867 26.54785156 C-133.15437065 27.80958717 -130.95921562 29.06934766 -128.76293945 30.32714844 C-123.38930709 33.41647867 -118.06406911 36.55687237 -112.80859375 39.84375 C-111.82818115 40.44904541 -110.84776855 41.05434082 -109.83764648 41.67797852 C-108.00643921 42.81344361 -106.18593082 43.96643642 -104.37915039 45.14038086 C-98.58351649 48.71201018 -93.79696685 50.60880415 -87 49 C-82.34235155 47.00041051 -78.06555786 44.4511802 -73.75 41.8125 C-72.50730768 41.074953 -71.26339118 40.33946503 -70.01831055 39.60595703 C-66.90669115 37.76687814 -63.8096826 35.90471655 -60.7164917 34.03485107 C-57.30762802 31.9796904 -53.87812153 29.9593614 -50.45117188 27.93457031 C-48.69437986 26.89622951 -46.93916324 25.85521853 -45.18554688 24.81152344 C-37.08961615 20.00586964 -28.88217628 15.40666348 -20.64770508 10.84326172 C-15.00589296 7.71154453 -9.44732347 4.49396098 -3.96972656 1.08178711 C-2 0 -2 0 0 0 Z " fill="#FCFCFC" transform="translate(288,292)"/>
<path d="M0 0 C-2.8960185 3.13191454 -5.77496408 5.22144898 -9.48046875 7.3203125 C-11.0895813 8.23901123 -11.0895813 8.23901123 -12.73120117 9.17626953 C-14.44206909 10.14089111 -14.44206909 10.14089111 -16.1875 11.125 C-17.37582392 11.80118824 -18.56372792 12.47811495 -19.7512207 13.15576172 C-21.52812126 14.16974026 -23.30521164 15.18335573 -25.08366394 16.1946106 C-29.64722662 18.79044595 -34.17498203 21.441744 -38.6875 24.125 C-43.40146637 26.92510076 -48.14890062 29.65336229 -52.9375 32.32421875 C-53.97173096 32.90220215 -55.00596191 33.48018555 -56.0715332 34.07568359 C-58.09819468 35.20532943 -60.12783655 36.32965036 -62.16088867 37.44775391 C-71.31619659 42.07236673 -71.31619659 42.07236673 -77 50 C-77.09954038 51.40849833 -77.1460613 52.82111907 -77.15821838 54.233078 C-77.17290161 55.52662956 -77.17290161 55.52662956 -77.18788147 56.84631348 C-77.19363693 57.78930298 -77.1993924 58.73229248 -77.20532227 59.70385742 C-77.22017166 61.19681084 -77.22017166 61.19681084 -77.23532104 62.71992493 C-77.26694945 66.01508187 -77.29169886 69.31025324 -77.31640625 72.60546875 C-77.33697461 74.88805011 -77.35797105 77.17062765 -77.37937927 79.45320129 C-77.43461207 85.46520904 -77.48401607 91.47725123 -77.53222656 97.48931885 C-77.58243273 103.62246776 -77.63812342 109.75556656 -77.69335938 115.88867188 C-77.80095575 127.92573846 -77.90239748 139.96284852 -78 152 C-82.10810948 150.67729212 -85.62561113 149.22297296 -89.328125 146.99609375 C-90.77445313 146.13274414 -90.77445313 146.13274414 -92.25 145.25195312 C-93.24 144.65318359 -94.23 144.05441406 -95.25 143.4375 C-97.23413213 142.2482926 -99.2184954 141.05947075 -101.203125 139.87109375 C-102.07614258 139.34443115 -102.94916016 138.81776855 -103.84863281 138.27514648 C-105.20608166 137.4705669 -106.58861326 136.70569337 -108 136 C-108.0697373 123.95120816 -108.12293136 111.90246493 -108.15543652 99.85351181 C-108.17104316 94.25773705 -108.19218952 88.66210113 -108.22631836 83.06640625 C-108.25909084 77.65880228 -108.27689057 72.25133124 -108.28463173 66.84363556 C-108.29014327 64.78812825 -108.30090535 62.73262761 -108.31719017 60.67717743 C-108.42190778 46.90281254 -107.88660542 34.51918882 -101.5 22 C-101.15960693 21.328479 -100.81921387 20.65695801 -100.46850586 19.96508789 C-92.33230757 4.72985296 -77.72039854 -6.96119191 -61.43359375 -12.421875 C-40.13084882 -17.48255919 -17.01258468 -14.18527834 0 0 Z " fill="#FDFDFD" transform="translate(273,110)"/>
<path d="M0 0 C0.87081207 0.29634338 1.74162415 0.59268677 2.63882446 0.89801025 C4.69692006 1.57277425 6.76867471 2.2092812 8.85848999 2.77825928 C16.90172593 5.12920772 25.49333412 8.50462196 30 16 C34.67556022 29.16033664 32.42778695 45.35682628 31.76452637 59.02612305 C31.53270251 64.38261305 31.4488499 69.74131485 31.34765625 75.1015625 C31.1736466 82.9513737 30.95561326 90.79741229 30.60791016 98.64160156 C30.57739563 99.44392212 30.5468811 100.24624268 30.51544189 101.07287598 C29.59554911 119.93649398 22.18844214 136.90337306 8.41015625 149.97265625 C-5.18228607 161.40616932 -19.88772313 166.37119491 -37.4375 166.3125 C-38.87706055 166.33666992 -38.87706055 166.33666992 -40.34570312 166.36132812 C-49.47199718 166.36747378 -58.03109979 164.57787884 -66 160 C-67.24330078 159.29810547 -67.24330078 159.29810547 -68.51171875 158.58203125 C-75.72273782 154.41589327 -75.72273782 154.41589327 -78 151 C-71.24217432 146.3352497 -64.25939181 142.18419485 -57.125 138.125 C-54.8233909 136.80740378 -52.52237382 135.48885589 -50.22265625 134.16796875 C-49.63365036 133.82977615 -49.04464447 133.49158356 -48.43778992 133.1431427 C-40.6578467 128.66589921 -32.95205608 124.06269643 -25.24853516 119.45556641 C-19.37058909 115.95152767 -13.4742853 112.6071377 -7.35522461 109.53930664 C-4.3613172 107.58257541 -2.90877138 106.06530831 -1 103 C-0.40281454 99.66121774 -0.43608644 96.36213616 -0.45410156 92.97729492 C-0.43859505 91.46927307 -0.43859505 91.46927307 -0.42277527 89.93078613 C-0.39332084 86.61385069 -0.39184749 83.29752476 -0.390625 79.98046875 C-0.3756452 77.67831761 -0.35891848 75.37617722 -0.34051514 73.0740509 C-0.29680734 67.01929229 -0.27683475 60.96467866 -0.26177979 54.90979004 C-0.24222122 48.72948624 -0.20024974 42.54933929 -0.16015625 36.36914062 C-0.08481682 24.24614209 -0.03454781 12.1231786 0 0 Z " fill="#FDFDFD" transform="translate(305,238)"/>
<path d="M0 0 C4.12701534 1.58096434 7.85407346 3.75644345 11.62614441 6.03056335 C15.50727899 8.34419948 19.32778486 10.35382522 23.52026367 12.04663086 C36.137628 17.50803689 36.137628 17.50803689 38.53564453 23.43640137 C39.91801775 30.48568718 39.27212761 37.5493896 38.7265625 44.66015625 C38.63113612 46.82580051 38.54446448 48.99184927 38.46679688 51.15820312 C38.25851373 56.43858709 37.94188677 61.70373017 37.5390625 66.97265625 C36.73275391 67.43115967 35.92644531 67.88966309 35.09570312 68.36206055 C32.0682433 70.08467823 29.04165664 71.80881118 26.015625 73.53393555 C24.7125796 74.27639459 23.40920164 75.01827032 22.10546875 75.75952148 C20.21784424 76.83289079 18.33151909 77.90851644 16.4453125 78.984375 C15.52927246 79.50401321 15.52927246 79.50401321 14.59472656 80.03414917 C11.28604055 81.92320717 8.09588098 83.91458095 4.9453125 86.0546875 C1.5390625 87.97265625 1.5390625 87.97265625 -1.015625 88.02734375 C-5.04728277 86.28844982 -8.79545957 84.17710612 -12.54801941 81.91474915 C-16.42915399 79.60111302 -20.24965986 77.59148728 -24.44213867 75.89868164 C-37.059503 70.43727561 -37.059503 70.43727561 -39.45751953 64.50891113 C-40.83989275 57.45962532 -40.19400261 50.3959229 -39.6484375 43.28515625 C-39.55301112 41.11951199 -39.46633948 38.95346323 -39.38867188 36.78710938 C-39.18038873 31.50672541 -38.86376177 26.24158233 -38.4609375 20.97265625 C-36.98771311 20.13492571 -35.51448681 19.29719853 -34.04125977 18.45947266 C-33.1662381 17.96183411 -32.29121643 17.46419556 -31.38967896 16.95147705 C-29.5141321 15.885191 -27.63795658 14.82001064 -25.76147461 13.75537109 C-21.42840877 11.28583915 -17.12289844 8.79484288 -12.90234375 6.13671875 C-12.22953369 5.71575928 -11.55672363 5.2947998 -10.86352539 4.86108398 C-9.62425115 4.0788448 -8.39244922 3.28459911 -7.16967773 2.47680664 C-4.69752429 0.92213119 -2.95547973 -0.03283866 0 0 Z " fill="#FDFDFD" transform="translate(250.4609375,206.02734375)"/>
<path d="M0 0 C0.66 0.33 1.32 0.66 2 1 C-3.78571429 5.82142857 -3.78571429 5.82142857 -7 7 C-7.99 6.67 -8.98 6.34 -10 6 C-8.3811004 4.96951963 -6.75467511 3.95085322 -5.125 2.9375 C-4.22007812 2.36902344 -3.31515625 1.80054688 -2.3828125 1.21484375 C-1.20332031 0.61349609 -1.20332031 0.61349609 0 0 Z " fill="#242424" transform="translate(286,273)"/>
<path d="M0 0 C0 3 0 3 0 3 Z " fill="#A1A1A1" transform="translate(479,453)"/>
<path d="M0 0 C0.99 0.495 0.99 0.495 2 1 C1.67 1.66 1.34 2.32 1 3 C0.67 2.01 0.34 1.02 0 0 Z " fill="#A1A1A1" transform="translate(20,453)"/>
<path d="M0 0 C0.99 0.495 0.99 0.495 2 1 C1.67 1.66 1.34 2.32 1 3 C0.67 2.01 0.34 1.02 0 0 Z " fill="#FBFBFB" transform="translate(17,449)"/>
<path d="M0 0 C0 3 0 3 0 3 Z " fill="#FFFFFF" transform="translate(482,449)"/>
<path d="M0 0 C0.99 0.495 0.99 0.495 2 1 C1.67 1.66 1.34 2.32 1 3 C0.67 2.01 0.34 1.02 0 0 Z " fill="#FDFDFD" transform="translate(15,446)"/>
<path d="M0 0 C0 3 0 3 0 3 Z " fill="#FEFEFE" transform="translate(484,446)"/>
<path d="M0 0 C0.99 0.495 0.99 0.495 2 1 C1.67 1.66 1.34 2.32 1 3 C0.67 2.01 0.34 1.02 0 0 Z " fill="#FFFFFF" transform="translate(483,51)"/>
<path d="M0 0 C0 3 0 3 0 3 Z " fill="#FFFFFF" transform="translate(16,51)"/>
<path d="M0 0 C0.99 0.495 0.99 0.495 2 1 C1.67 1.66 1.34 2.32 1 3 C0.67 2.01 0.34 1.02 0 0 Z " fill="#FFFFFF" transform="translate(481,48)"/>
<path d="M0 0 C0 3 0 3 0 3 Z " fill="#FFFFFF" transform="translate(18,48)"/>
<path d="M0 0 C0.99 0.495 0.99 0.495 2 1 C1.67 1.66 1.34 2.32 1 3 C0.67 2.01 0.34 1.02 0 0 Z " fill="#9C9C9C" transform="translate(478,44)"/>
<path d="M0 0 C0 3 0 3 0 3 Z " fill="#A2A2A2" transform="translate(21,44)"/>
<path d="M0 0 C2 1 2 1 2 1 Z " fill="#FDFDFD" transform="translate(422,495)"/>
<path d="M0 0 C2 1 2 1 2 1 Z " fill="#FBFAFB" transform="translate(76,495)"/>
<path d="M0 0 C2 1 2 1 2 1 Z " fill="#FEFEFE" transform="translate(425,494)"/>
<path d="M0 0 C2 1 2 1 2 1 Z " fill="#FFFFFF" transform="translate(73,494)"/>
<path d="M0 0 C2 1 2 1 2 1 Z " fill="#FFFFFF" transform="translate(428,493)"/>
<path d="M0 0 C2 1 2 1 2 1 Z " fill="#FFFFFF" transform="translate(70,493)"/>
<path d="M0 0 C2 1 2 1 2 1 Z " fill="#FFFFFF" transform="translate(430,492)"/>
<path d="M0 0 C2 1 2 1 2 1 Z " fill="#FFFFFF" transform="translate(68,492)"/>
<path d="" fill="#FEFEFE" transform="translate(0,0)"/>
<path d="" fill="#FDFDFD" transform="translate(0,0)"/>
<path d="" fill="#FEFEFE" transform="translate(0,0)"/>
<path d="" fill="#FDFDFD" transform="translate(0,0)"/>
<path d="" fill="#FCFCFC" transform="translate(0,0)"/>
<path d="" fill="#FFFFFF" transform="translate(0,0)"/>
<path d="" fill="#FEFEFE" transform="translate(0,0)"/>
<path d="" fill="#FBFBFB" transform="translate(0,0)"/>
<path d="" fill="#C2C2C2" transform="translate(0,0)"/>
<path d="" fill="#C3C3C3" transform="translate(0,0)"/>
<path d="" fill="#FFFFFF" transform="translate(0,0)"/>
<path d="" fill="#FFFFFF" transform="translate(0,0)"/>
<path d="" fill="#F8F8F8" transform="translate(0,0)"/>
<path d="" fill="#FCFCFC" transform="translate(0,0)"/>
<path d="" fill="#FEFEFE" transform="translate(0,0)"/>
<path d="" fill="#FFFFFF" transform="translate(0,0)"/>
<path d="" fill="#FEFEFE" transform="translate(0,0)"/>
<path d="" fill="#F7F7F7" transform="translate(0,0)"/>
<path d="" fill="#FEFEFE" transform="translate(0,0)"/>
<path d="" fill="#FBFBFB" transform="translate(0,0)"/>
<path d="" fill="#FEFEFE" transform="translate(0,0)"/>
<path d="" fill="#FFFFFF" transform="translate(0,0)"/>
<path d="" fill="#BDBDBD" transform="translate(0,0)"/>
<path d="" fill="#C2C2C2" transform="translate(0,0)"/>
<path d="" fill="#FDFDFD" transform="translate(0,0)"/>
<path d="" fill="#FBFBFB" transform="translate(0,0)"/>
<path d="" fill="#F3F2F3" transform="translate(0,0)"/>
<path d="" fill="#FDFDFD" transform="translate(0,0)"/>
<path d="" fill="#FFFFFF" transform="translate(0,0)"/>
<path d="" fill="#FCFBFC" transform="translate(0,0)"/>
<path d="" fill="#FFFFFF" transform="translate(0,0)"/>
<path d="" fill="#FEFEFE" transform="translate(0,0)"/>
<path d="M0 0 C2 1 2 1 2 1 Z " fill="#FEFEFE" transform="translate(430,7)"/>
<path d="M0 0 C2 1 2 1 2 1 Z " fill="#FEFEFE" transform="translate(68,7)"/>
<path d="M0 0 C2 1 2 1 2 1 Z " fill="#FEFEFE" transform="translate(428,6)"/>
<path d="M0 0 C2 1 2 1 2 1 Z " fill="#FEFEFE" transform="translate(70,6)"/>
<path d="M0 0 C2 1 2 1 2 1 Z " fill="#FEFEFE" transform="translate(425,5)"/>
<path d="M0 0 C2 1 2 1 2 1 Z " fill="#FEFEFE" transform="translate(73,5)"/>
<path d="M0 0 C2 1 2 1 2 1 Z " fill="#FFFFFF" transform="translate(422,4)"/>
<path d="M0 0 C2 1 2 1 2 1 Z " fill="#FCFCFC" transform="translate(76,4)"/>
<path d="" fill="#FFFFFF" transform="translate(0,0)"/>
<path d="" fill="#FFFFFF" transform="translate(0,0)"/>
<path d="" fill="#F1F1F1" transform="translate(0,0)"/>
<path d="" fill="#FEFEFE" transform="translate(0,0)"/>
<path d="" fill="#FFFFFF" transform="translate(0,0)"/>
<path d="" fill="#FEFEFE" transform="translate(0,0)"/>
<path d="" fill="#CDCDCD" transform="translate(0,0)"/>
<path d="" fill="#CECECE" transform="translate(0,0)"/>
<path d="" fill="#FFFFFF" transform="translate(0,0)"/>
<path d="" fill="#FFFFFF" transform="translate(0,0)"/>
<path d="" fill="#FDFDFD" transform="translate(0,0)"/>
<path d="" fill="#FFFFFF" transform="translate(0,0)"/>
<path d="" fill="#FEFEFE" transform="translate(0,0)"/>
<path d="" fill="#FEFEFE" transform="translate(0,0)"/>
<path d="" fill="#FDFDFD" transform="translate(0,0)"/>
<path d="" fill="#FFFFFF" transform="translate(0,0)"/>
<path d="" fill="#FFFFFF" transform="translate(0,0)"/>
<path d="" fill="#F3F3F3" transform="translate(0,0)"/>
<path d="" fill="#FEFEFE" transform="translate(0,0)"/>
<path d="" fill="#FFFFFF" transform="translate(0,0)"/>
<path d="" fill="#FFFFFF" transform="translate(0,0)"/>
<path d="" fill="#FFFFFF" transform="translate(0,0)"/>
<path d="" fill="#FFFFFF" transform="translate(0,0)"/>
<path d="" fill="#FCFBFC" transform="translate(0,0)"/>
<path d="" fill="#FFFFFF" transform="translate(0,0)"/>
<path d="" fill="#FEFEFE" transform="translate(0,0)"/>
<path d="" fill="#FFFFFF" transform="translate(0,0)"/>
<path d="" fill="#FFFFFF" transform="translate(0,0)"/>
<path d="" fill="#FFFFFF" transform="translate(0,0)"/>
<path d="" fill="#F1F1F1" transform="translate(0,0)"/>
<path d="" fill="#FEFEFE" transform="translate(0,0)"/>
<path d="" fill="#FCFBFC" transform="translate(0,0)"/>
<path d="" fill="#FDFDFD" transform="translate(0,0)"/>
<path d="" fill="#FCFBFC" transform="translate(0,0)"/>
<path d="" fill="#FEFEFE" transform="translate(0,0)"/>
<path d="" fill="#FCFBFC" transform="translate(0,0)"/>
<path d="" fill="#FEFEFE" transform="translate(0,0)"/>
<path d="" fill="#FEFEFE" transform="translate(0,0)"/>
<path d="" fill="#FFFFFF" transform="translate(0,0)"/>
<path d="" fill="#FDFDFD" transform="translate(0,0)"/>
<path d="" fill="#FFFFFF" transform="translate(0,0)"/>
<path d="" fill="#FDFDFD" transform="translate(0,0)"/>
<path d="" fill="#FFFFFF" transform="translate(0,0)"/>
<path d="" fill="#F5F5F5" transform="translate(0,0)"/>
<path d="" fill="#F8F8F8" transform="translate(0,0)"/>
<path d="" fill="#FFFFFF" transform="translate(0,0)"/>
<path d="" fill="#F8F8F8" transform="translate(0,0)"/>
<path d="" fill="#FFFFFF" transform="translate(0,0)"/>
<path d="" fill="#F9F9F9" transform="translate(0,0)"/>
<path d="" fill="#FAFAFA" transform="translate(0,0)"/>
<path d="" fill="#FCFBFC" transform="translate(0,0)"/>
<path d="" fill="#F9F9F9" transform="translate(0,0)"/>
<path d="" fill="#FDFDFD" transform="translate(0,0)"/>
<path d="" fill="#F8F8F8" transform="translate(0,0)"/>
<path d="" fill="#FFFFFF" transform="translate(0,0)"/>
<path d="" fill="#FFFFFF" transform="translate(0,0)"/>
<path d="" fill="#FAFAFA" transform="translate(0,0)"/>
<path d="" fill="#FFFFFF" transform="translate(0,0)"/>
<path d="" fill="#FCFBFC" transform="translate(0,0)"/>
<path d="" fill="#FEFEFE" transform="translate(0,0)"/>
<path d="" fill="#FCFBFC" transform="translate(0,0)"/>
<path d="" fill="#FCFBFC" transform="translate(0,0)"/>
<path d="" fill="#FFFFFF" transform="translate(0,0)"/>
<path d="" fill="#FDFDFD" transform="translate(0,0)"/>
<path d="" fill="#CBCBCB" transform="translate(0,0)"/>
<path d="" fill="#CCCCCC" transform="translate(0,0)"/>
<path d="" fill="#F9F9F9" transform="translate(0,0)"/>
<path d="" fill="#FFFFFF" transform="translate(0,0)"/>
<path d="" fill="#FCFBFC" transform="translate(0,0)"/>
<path d="" fill="#FEFEFE" transform="translate(0,0)"/>
<path d="" fill="#FEFEFE" transform="translate(0,0)"/>
<path d="" fill="#FEFEFE" transform="translate(0,0)"/>
</svg>
