<?xml version="1.0" encoding="UTF-8"?>
<svg version="1.1" xmlns="http://www.w3.org/2000/svg" width="250" height="250">
<path d="M0 0 C1.19818359 -0.00128906 2.39636719 -0.00257812 3.63085938 -0.00390625 C4.88833984 -0.00003906 6.14582031 0.00382812 7.44140625 0.0078125 C8.69501953 0.00394531 9.94863281 0.00007813 11.24023438 -0.00390625 C13.03944336 -0.00197266 13.03944336 -0.00197266 14.875 0 C16.5290686 0.00169189 16.5290686 0.00169189 18.21655273 0.00341797 C21.00390625 0.1328125 21.00390625 0.1328125 24.00390625 1.1328125 C24.96743774 2.96865845 24.96743774 2.96865845 25.84619141 5.33837891 C29.73060332 14.96206173 29.73060332 14.96206173 37.52331543 21.16931152 C44.74938592 22.56657265 52.07990022 21.97267622 59.37890625 21.5078125 C62.67725969 21.37393277 65.97430031 21.26724935 69.27432251 21.18447876 C71.31794193 21.12520325 73.36093638 21.03220583 75.4012146 20.9012146 C82.27908337 20.59131705 82.27908337 20.59131705 85.9855957 23.36035156 C88.85220174 27.29807724 91.37398457 31.29471662 93.81640625 35.5078125 C94.31849609 36.3328125 94.82058594 37.1578125 95.33789062 38.0078125 C98.15764504 42.84167721 100.01258768 46.39925488 99.00390625 52.1328125 C97.81515061 54.85189978 96.31593708 57.27945849 94.69140625 59.7578125 C94.08522461 60.72074219 94.08522461 60.72074219 93.46679688 61.703125 C91.73392411 64.45317999 89.99351021 67.14716793 88.0859375 69.78125 C86.7091786 72.0795626 86.7091786 72.0795626 87.71630859 74.38842773 C89.1724241 77.49199134 90.80376717 80.42840327 92.5234375 83.39453125 C92.86388596 83.98522903 93.20433441 84.57592682 93.55509949 85.18452454 C94.63908963 87.064939 95.72725911 88.94288093 96.81640625 90.8203125 C101.45036636 98.81209374 106.01329967 106.79255354 110.00390625 115.1328125 C109.34390625 115.1328125 108.68390625 115.1328125 108.00390625 115.1328125 C107.67390625 114.4728125 107.34390625 113.8128125 107.00390625 113.1328125 C106.75898438 113.6690625 106.5140625 114.2053125 106.26171875 114.7578125 C105.44320774 116.47386317 104.5790739 118.16840459 103.6875 119.84765625 C102.41208803 122.33633715 101.34170526 124.74585497 100.2890625 127.32421875 C96.21721859 136.26446292 96.21721859 136.26446292 92.00390625 139.1328125 C88.071822 139.73527307 84.26673046 139.33368458 80.31640625 139.0078125 C75.93591587 138.72197572 72.17933116 138.67757822 68.00390625 140.1328125 C59.61749868 147.9996478 54.83086694 161.03384342 50.96484375 171.640625 C47.38783024 180.54249036 47.38783024 180.54249036 43.00390625 183.1328125 C37.74919666 184.4426644 32.63632154 184.72947916 27.25390625 184.7578125 C26.55442871 184.76846741 25.85495117 184.77912231 25.13427734 184.7901001 C14.01260253 184.80798583 14.01260253 184.80798583 9.92773438 181.40136719 C8.31247821 179.05409961 7.16762416 176.73292062 6.00390625 174.1328125 C4.88800212 172.10694223 3.76298948 170.08606238 2.62890625 168.0703125 C1.74963727 166.42675586 0.87306071 164.7817403 0.00390625 163.1328125 C-0.60251205 163.1535936 -1.20893036 163.17437469 -1.83372498 163.19578552 C-8.17765148 163.39822403 -14.51700467 163.49402407 -20.86401367 163.52954102 C-23.22808385 163.55654325 -25.59201201 163.61023026 -27.95483398 163.69165039 C-47.10631647 164.32505733 -47.10631647 164.32505733 -51.93338013 160.66314697 C-55.41622337 156.62666845 -57.15150056 152.07749321 -58.99609375 147.1328125 C-60.54379231 144.58453967 -60.54379231 144.58453967 -62.05859375 142.6328125 C-64.54793715 139.21310843 -64.47170905 136.28595327 -63.99609375 132.1328125 C-62.58186184 129.07660598 -60.78603835 126.31499762 -58.93359375 123.5078125 C-57.97090251 122.04523775 -57.02109344 120.57408195 -56.0859375 119.09375 C-55.66175537 118.45228027 -55.23757324 117.81081055 -54.80053711 117.14990234 C-53.70206011 114.39554211 -54.12166004 112.9439312 -54.99609375 110.1328125 C-56.17967004 107.60729546 -56.17967004 107.60729546 -57.69140625 105.0703125 C-58.51390869 103.63655273 -58.51390869 103.63655273 -59.35302734 102.17382812 C-59.93648926 101.17029297 -60.51995117 100.16675781 -61.12109375 99.1328125 C-62.30377539 97.06011831 -63.48606964 94.98720302 -64.66796875 92.9140625 C-66.57540008 89.58949786 -68.49843614 86.27582776 -70.44921875 82.9765625 C-71.0834375 81.873125 -71.71765625 80.7696875 -72.37109375 79.6328125 C-72.91507813 78.715 -73.4590625 77.7971875 -74.01953125 76.8515625 C-75.31764024 73.23762707 -75.21637704 70.69413276 -73.99609375 67.1328125 C-72.08928102 63.20420336 -69.88463058 59.48972128 -67.62109375 55.7578125 C-67.03070313 54.74847656 -66.4403125 53.73914063 -65.83203125 52.69921875 C-61.38872768 45.26369048 -61.38872768 45.26369048 -57.99609375 44.1328125 C-56.00406345 44.04989297 -54.00935662 44.02543073 -52.015625 44.03515625 C-50.85224609 44.03837891 -49.68886719 44.04160156 -48.49023438 44.04492188 C-47.27529297 44.05330078 -46.06035156 44.06167969 -44.80859375 44.0703125 C-43.58205078 44.07482422 -42.35550781 44.07933594 -41.09179688 44.08398438 C-38.05984707 44.09578185 -35.02799469 44.11224329 -31.99609375 44.1328125 C-31.70653809 43.38459229 -31.41698242 42.63637207 -31.11865234 41.86547852 C-30.19295176 39.61202775 -29.21123649 37.53720093 -28.03515625 35.41015625 C-27.65166016 34.71591553 -27.26816406 34.0216748 -26.87304688 33.30639648 C-26.45990234 32.56848877 -26.04675781 31.83058105 -25.62109375 31.0703125 C-24.97430664 29.91221069 -24.97430664 29.91221069 -24.31445312 28.73071289 C-20.7896112 22.46258628 -17.17049932 16.2518216 -13.49609375 10.0703125 C-12.97998535 9.19560303 -12.46387695 8.32089355 -11.93212891 7.41967773 C-11.4479248 6.61216064 -10.9637207 5.80464355 -10.46484375 4.97265625 C-10.03623047 4.25456787 -9.60761719 3.53647949 -9.16601562 2.79663086 C-6.77830983 -0.59907343 -3.86346169 0.00395586 0 0 Z " fill="#FBFCFE" transform="translate(108.99609375,20.8671875)"/>
<path d="M0 0 C1.19818359 -0.00128906 2.39636719 -0.00257812 3.63085938 -0.00390625 C4.88833984 -0.00003906 6.14582031 0.00382812 7.44140625 0.0078125 C8.69501953 0.00394531 9.94863281 0.00007813 11.24023438 -0.00390625 C13.03944336 -0.00197266 13.03944336 -0.00197266 14.875 0 C16.5290686 0.00169189 16.5290686 0.00169189 18.21655273 0.00341797 C21.00390625 0.1328125 21.00390625 0.1328125 24.00390625 1.1328125 C24.96743774 2.96865845 24.96743774 2.96865845 25.84619141 5.33837891 C29.73060332 14.96206173 29.73060332 14.96206173 37.52331543 21.16931152 C44.74938592 22.56657265 52.07990022 21.97267622 59.37890625 21.5078125 C62.67725969 21.37393277 65.97430031 21.26724935 69.27432251 21.18447876 C71.31794193 21.12520325 73.36093638 21.03220583 75.4012146 20.9012146 C82.27908337 20.59131705 82.27908337 20.59131705 85.9855957 23.36035156 C88.85220174 27.29807724 91.37398457 31.29471662 93.81640625 35.5078125 C94.31849609 36.3328125 94.82058594 37.1578125 95.33789062 38.0078125 C98.15764504 42.84167721 100.01258768 46.39925488 99.00390625 52.1328125 C97.81515061 54.85189978 96.31593708 57.27945849 94.69140625 59.7578125 C94.08522461 60.72074219 94.08522461 60.72074219 93.46679688 61.703125 C91.73392411 64.45317999 89.99351021 67.14716793 88.0859375 69.78125 C86.7091786 72.0795626 86.7091786 72.0795626 87.71630859 74.38842773 C89.1724241 77.49199134 90.80376717 80.42840327 92.5234375 83.39453125 C92.86388596 83.98522903 93.20433441 84.57592682 93.55509949 85.18452454 C94.63908963 87.064939 95.72725911 88.94288093 96.81640625 90.8203125 C101.45036636 98.81209374 106.01329967 106.79255354 110.00390625 115.1328125 C109.34390625 115.1328125 108.68390625 115.1328125 108.00390625 115.1328125 C107.67390625 114.4728125 107.34390625 113.8128125 107.00390625 113.1328125 C106.75898438 113.6690625 106.5140625 114.2053125 106.26171875 114.7578125 C105.44320774 116.47386317 104.5790739 118.16840459 103.6875 119.84765625 C102.41208803 122.33633715 101.34170526 124.74585497 100.2890625 127.32421875 C96.21721859 136.26446292 96.21721859 136.26446292 92.00390625 139.1328125 C88.071822 139.73527307 84.26673046 139.33368458 80.31640625 139.0078125 C75.93591587 138.72197572 72.17933116 138.67757822 68.00390625 140.1328125 C59.44525233 148.16122277 55.10992642 160.9699712 50.75390625 171.640625 C46.75190285 180.69851725 46.75190285 180.69851725 43.00390625 183.1328125 C34.82696608 185.10727843 26.26543447 184.17612549 18.00390625 183.1328125 C19.38504072 178.58481693 21.24564339 174.48917841 23.49609375 170.3203125 C23.83778595 169.67868164 24.17947815 169.03705078 24.53152466 168.37597656 C25.64273269 166.29243408 26.76067353 164.212592 27.87890625 162.1328125 C28.65786304 160.67594747 29.43650607 159.21891464 30.21484375 157.76171875 C34.88739886 149.02483562 39.61013064 140.31592662 44.37744141 131.63037109 C51.72789887 118.20790623 58.8446238 104.65788601 66.00390625 91.1328125 C66.99390625 91.1328125 67.98390625 91.1328125 69.00390625 91.1328125 C69.21144531 91.73343506 69.41898438 92.33405762 69.6328125 92.95288086 C72.07565913 99.54613923 74.70722194 106.32857163 80.00390625 111.1328125 C87.60546241 113.89548976 96.09268252 113.0125779 104.00390625 112.1328125 C103.56111328 111.3579248 103.11832031 110.58303711 102.66210938 109.78466797 C98.52832031 102.55053711 98.52832031 102.55053711 94.39453125 95.31640625 C94.04655487 94.70821045 93.69857849 94.10001465 93.34005737 93.47338867 C92.63486625 92.23775885 91.93234251 91.00060303 91.23245239 89.76196289 C89.41904363 86.56081641 87.56284393 83.40133154 85.61279297 80.28125 C85.23159302 79.65687042 84.85039307 79.03249084 84.4576416 78.38919067 C83.4010232 76.66247865 82.3248631 74.94776882 81.24755859 73.23388672 C80.00390625 70.1328125 80.00390625 70.1328125 80.75195312 67.00341797 C82.2645507 64.12465513 84.0445773 61.73120574 86.00390625 59.1328125 C87.98390625 55.8328125 89.96390625 52.5328125 92.00390625 49.1328125 C60.32390625 48.8028125 28.64390625 48.4728125 -3.99609375 48.1328125 C-1.75736253 41.41661884 -1.75736253 41.41661884 0.23828125 38.4765625 C0.85123047 37.53103516 0.85123047 37.53103516 1.4765625 36.56640625 C2.33290226 35.27011211 3.20027092 33.98104108 4.078125 32.69921875 C6.62104875 28.76589778 6.62104875 28.76589778 6.55859375 24.1875 C4.58957923 20.31873279 2.55312942 16.51514192 0.37890625 12.7578125 C-0.04132813 12.02175781 -0.4615625 11.28570312 -0.89453125 10.52734375 C-1.92362139 8.726436 -2.95920131 6.92923932 -3.99609375 5.1328125 C-4.65609375 5.1328125 -5.31609375 5.1328125 -5.99609375 5.1328125 C-7.50698654 7.45846359 -8.88817377 9.78117256 -10.24609375 12.1953125 C-11.13487786 13.74194476 -12.02561687 15.28745472 -12.91796875 16.83203125 C-13.40458984 17.67556152 -13.89121094 18.5190918 -14.39257812 19.38818359 C-17.36052399 24.46821517 -20.43149165 29.48570966 -23.49609375 34.5078125 C-24.41310059 36.01420288 -24.41310059 36.01420288 -25.34863281 37.55102539 C-29.71650498 44.71342935 -29.71650498 44.71342935 -31.99609375 48.1328125 C-34.79345703 48.56518555 -34.79345703 48.56518555 -38.31640625 48.64453125 C-39.57324219 48.67998047 -40.83007812 48.71542969 -42.125 48.75195312 C-44.10306641 48.78579102 -44.10306641 48.78579102 -46.12109375 48.8203125 C-47.46097134 48.85347779 -48.80081686 48.88796672 -50.140625 48.92382812 C-53.42569705 49.00654577 -56.71049407 49.07561943 -59.99609375 49.1328125 C-54.40394079 58.75076599 -48.69413969 68.29163076 -42.89697266 77.78735352 C-36.16690261 88.81240995 -29.61280688 99.91593414 -23.20214844 111.13037109 C-19.21670346 118.08165318 -15.10821191 124.93259023 -10.78735352 131.68066406 C-7.99609375 136.04498216 -7.99609375 136.04498216 -7.99609375 137.1328125 C-16.24609375 137.1328125 -24.49609375 137.1328125 -32.99609375 137.1328125 C-33.65609375 138.7828125 -34.31609375 140.4328125 -34.99609375 142.1328125 C-35.82457326 143.55836637 -36.69279492 144.96150847 -37.59765625 146.33984375 C-38.33242187 147.46616211 -38.33242187 147.46616211 -39.08203125 148.61523438 C-39.58992188 149.38416016 -40.0978125 150.15308594 -40.62109375 150.9453125 C-41.39453125 152.12770508 -41.39453125 152.12770508 -42.18359375 153.33398438 C-43.45050792 155.2695477 -44.72142339 157.20235192 -45.99609375 159.1328125 C-45.15616631 159.08165535 -45.15616631 159.08165535 -44.29927063 159.02946472 C-3.21849989 156.67659243 -3.21849989 156.67659243 4.50585938 162.20898438 C9.69227466 167.56465331 14.00390625 175.47227643 14.00390625 183.1328125 C11.55264619 182.17090014 10.26996821 181.6430323 9.02955627 179.264328 C8.79107468 178.52507584 8.55259308 177.78582367 8.30688477 177.02416992 C6.30160217 171.79000745 4.27527275 166.91399862 0.00390625 163.1328125 C-7.8035447 160.31853625 -16.95124832 161.8003381 -25.05859375 162.4453125 C-47.32759055 164.11000403 -47.32759055 164.11000403 -51.90103149 160.72137451 C-55.40232295 156.68031413 -57.13813023 152.08749058 -58.99609375 147.1328125 C-60.54513623 144.58140431 -60.54513623 144.58140431 -62.05859375 142.6328125 C-64.54793715 139.21310843 -64.47170905 136.28595327 -63.99609375 132.1328125 C-62.58186184 129.07660598 -60.78603835 126.31499762 -58.93359375 123.5078125 C-57.97090251 122.04523775 -57.02109344 120.57408195 -56.0859375 119.09375 C-55.66175537 118.45228027 -55.23757324 117.81081055 -54.80053711 117.14990234 C-53.70206011 114.39554211 -54.12166004 112.9439312 -54.99609375 110.1328125 C-56.17967004 107.60729546 -56.17967004 107.60729546 -57.69140625 105.0703125 C-58.51390869 103.63655273 -58.51390869 103.63655273 -59.35302734 102.17382812 C-59.93648926 101.17029297 -60.51995117 100.16675781 -61.12109375 99.1328125 C-62.30377539 97.06011831 -63.48606964 94.98720302 -64.66796875 92.9140625 C-66.57540008 89.58949786 -68.49843614 86.27582776 -70.44921875 82.9765625 C-71.0834375 81.873125 -71.71765625 80.7696875 -72.37109375 79.6328125 C-72.91507813 78.715 -73.4590625 77.7971875 -74.01953125 76.8515625 C-75.31764024 73.23762707 -75.21637704 70.69413276 -73.99609375 67.1328125 C-72.08928102 63.20420336 -69.88463058 59.48972128 -67.62109375 55.7578125 C-67.03070313 54.74847656 -66.4403125 53.73914063 -65.83203125 52.69921875 C-61.38872768 45.26369048 -61.38872768 45.26369048 -57.99609375 44.1328125 C-56.00406345 44.04989297 -54.00935662 44.02543073 -52.015625 44.03515625 C-50.85224609 44.03837891 -49.68886719 44.04160156 -48.49023438 44.04492188 C-47.27529297 44.05330078 -46.06035156 44.06167969 -44.80859375 44.0703125 C-43.58205078 44.07482422 -42.35550781 44.07933594 -41.09179688 44.08398438 C-38.05984707 44.09578185 -35.02799469 44.11224329 -31.99609375 44.1328125 C-31.70653809 43.38459229 -31.41698242 42.63637207 -31.11865234 41.86547852 C-30.19295176 39.61202775 -29.21123649 37.53720093 -28.03515625 35.41015625 C-27.65166016 34.71591553 -27.26816406 34.0216748 -26.87304688 33.30639648 C-26.45990234 32.56848877 -26.04675781 31.83058105 -25.62109375 31.0703125 C-24.97430664 29.91221069 -24.97430664 29.91221069 -24.31445312 28.73071289 C-20.7896112 22.46258628 -17.17049932 16.2518216 -13.49609375 10.0703125 C-12.97998535 9.19560303 -12.46387695 8.32089355 -11.93212891 7.41967773 C-11.4479248 6.61216064 -10.9637207 5.80464355 -10.46484375 4.97265625 C-10.03623047 4.25456787 -9.60761719 3.53647949 -9.16601562 2.79663086 C-6.77830983 -0.59907343 -3.86346169 0.00395586 0 0 Z " fill="#483FB2" transform="translate(108.99609375,20.8671875)"/>
<path d="M0 0 C2.39451296 2.19978763 3.92498058 4.38210729 5.48046875 7.23046875 C5.87903076 7.95387451 6.27759277 8.67728027 6.68823242 9.42260742 C7.18299072 10.33502197 7.67774902 11.24743652 8.1875 12.1875 C9.775625 15.095625 11.36375 18.00375 13 21 C21.25 21 29.5 21 38 21 C39.08822808 26.44114041 38.98268804 26.85903569 36.2890625 31.265625 C35.70382813 32.23757812 35.11859375 33.20953125 34.515625 34.2109375 C33.89171875 35.21382812 33.2678125 36.21671875 32.625 37.25 C32.00882812 38.26835937 31.39265625 39.28671875 30.7578125 40.3359375 C26.25015944 47.74984056 26.25015944 47.74984056 25 49 C23.38891625 48.83934577 21.78259444 48.630576 20.1796875 48.40234375 C13.53942514 47.78385135 7.26950172 47.41622387 1 50 C-7.53500761 58.10689272 -11.87791907 70.79781573 -16.25 81.5078125 C-20.2520034 90.56570475 -20.2520034 90.56570475 -24 93 C-32.17694017 94.97446593 -40.73847178 94.04331299 -49 93 C-47.61886553 88.45200443 -45.75826286 84.35636591 -43.5078125 80.1875 C-42.9952742 79.22505371 -42.9952742 79.22505371 -42.47238159 78.24316406 C-41.36117356 76.15962158 -40.24323272 74.0797795 -39.125 72 C-38.34604321 70.54313497 -37.56740018 69.08610214 -36.7890625 67.62890625 C-32.11604908 58.89116615 -27.39469168 50.18032687 -22.62426758 41.49536133 C-19.54615256 35.87755093 -16.52031443 30.23358985 -13.51953125 24.57421875 C-13.13086884 23.84123566 -12.74220642 23.10825256 -12.34176636 22.35305786 C-10.39835279 18.68568487 -8.45825705 15.01658726 -6.52148438 11.34570312 C-5.81251291 10.0052015 -5.10352913 8.6647064 -4.39453125 7.32421875 C-3.90168388 6.38687141 -3.90168388 6.38687141 -3.39888 5.43058777 C-1.11293246 1.11293246 -1.11293246 1.11293246 0 0 Z " fill="#4E45BD" transform="translate(176,111)"/>
<path d="M0 0 C20.79 0 41.58 0 63 0 C61.63745248 3.4063688 60.57887771 5.89206893 58.671875 8.87109375 C57.97674805 9.96417847 57.97674805 9.96417847 57.26757812 11.0793457 C56.76677734 11.85753662 56.26597656 12.63572754 55.75 13.4375 C55.22857422 14.25500732 54.70714844 15.07251465 54.16992188 15.91479492 C53.04525855 17.67764162 51.91889322 19.43940339 50.79101562 21.20019531 C48.93225207 24.10590694 47.08225351 27.01704275 45.234375 29.9296875 C34.83918986 46.30708366 34.83918986 46.30708366 31 52 C27.50586981 48.86225559 25.37258894 45.40758427 23.1875 41.3125 C19.01980496 33.69847684 14.60389894 26.24720324 10.125 18.8125 C9.47039795 17.72557861 8.8157959 16.63865723 8.14135742 15.51879883 C6.95334441 13.54822171 5.76456585 11.57810573 4.57470703 9.60864258 C4.05505371 8.74779053 3.53540039 7.88693848 3 7 C2.43780762 6.10498779 1.87561523 5.20997559 1.29638672 4.2878418 C0 2 0 2 0 0 Z " fill="#6056E0" transform="translate(96,100)"/>
<path d="M0 0 C-0.29437396 5.5931052 -2.80101905 9.08136582 -5.91796875 13.53515625 C-7.29365634 15.93408125 -7.29365634 15.93408125 -6.28759766 18.26269531 C-4.82955343 21.36235247 -3.19877826 24.29793795 -1.48046875 27.26171875 C-1.14002029 27.85241653 -0.79957184 28.44311432 -0.44880676 29.05171204 C0.63518338 30.9321265 1.72335286 32.81006843 2.8125 34.6875 C7.44646011 42.67928124 12.00939342 50.65974104 16 59 C15.34 59 14.68 59 14 59 C10.30012779 55.30012779 7.44116587 51.27355066 4.828125 46.75390625 C4.24901367 45.75834717 3.66990234 44.76278809 3.07324219 43.73706055 C1.84186409 41.59303144 0.61341927 39.44731538 -0.61230469 37.30004883 C-4.56558394 30.37713024 -4.56558394 30.37713024 -8.90625 23.6953125 C-11.03814421 20.55403851 -12.90237191 17.67633513 -14 14 C-12.87114647 9.59693622 -10.81860431 6.51511854 -8 3 C-7.67 2.34 -7.34 1.68 -7 1 C-4 0 -4 0 0 0 Z " fill="#4E42A8" transform="translate(203,77)"/>
<path d="M0 0 C43.54004726 -3.54666929 43.54004726 -3.54666929 51.54931641 2.02880859 C56.8162647 7.38714407 61 15.2983906 61 23 C58.56070778 22.03908578 57.26770601 21.50162564 56.01077271 19.14639282 C55.76632416 18.4131076 55.52187561 17.67982239 55.27001953 16.92431641 C53.23040604 11.71665429 51.16766235 6.85915821 47 3 C39.49735746 -0.09647669 30.80323136 0.98906057 22.875 1.375 C20.65639147 1.41711728 18.4376116 1.45105082 16.21875 1.4765625 C10.80691893 1.5565164 5.40592412 1.73817352 0 2 C0 1.34 0 0.68 0 0 Z " fill="#4943A2" transform="translate(62,181)"/>
<path d="M0 0 C1.32 0.66 2.64 1.32 4 2 C3.34 2 2.68 2 2 2 C1.690625 3.17949219 1.690625 3.17949219 1.375 4.3828125 C-0.48855476 9.28523213 -3.19641433 13.45860108 -6 17.875 C-6.57580811 18.7930542 -7.15161621 19.7111084 -7.74487305 20.65698242 C-8.92158665 22.53221221 -10.1008643 24.40583552 -11.28271484 26.27783203 C-13.36184869 29.57358728 -15.42472473 32.87929786 -17.48632812 36.18603516 C-19.3201862 39.12655501 -21.15992986 42.06336435 -23 45 C-23.67919922 43.34692383 -23.67919922 43.34692383 -24 41 C-22.87939453 38.3972168 -22.87939453 38.3972168 -21.1328125 35.44921875 C-20.49802979 34.36431152 -19.86324707 33.2794043 -19.20922852 32.16162109 C-18.51479716 31.00339392 -17.82004882 29.84535674 -17.125 28.6875 C-16.4311629 27.51184798 -15.73837451 26.33557641 -15.04663086 25.15869141 C-13.04616424 21.76334009 -11.02435896 18.38115961 -9 15 C-7.99839722 13.31658512 -6.99705417 11.63301566 -5.99609375 9.94921875 C-4.01313401 6.62309875 -2.01394039 3.30744682 0 0 Z " fill="#4D429D" transform="translate(101,22)"/>
<path d="M0 0 C20.79 0 41.58 0 63 0 C61.53269801 3.66825498 60.2570245 6.39592977 58.1796875 9.64453125 C57.64472656 10.48564453 57.10976562 11.32675781 56.55859375 12.19335938 C55.72521484 13.48983398 55.72521484 13.48983398 54.875 14.8125 C54.31167969 15.69615234 53.74835938 16.57980469 53.16796875 17.49023438 C51.78236826 19.66257413 50.39295366 21.83237083 49 24 C48 21 48 21 48.6875 18.5625 C50.10655246 15.791969 51.77807664 14.15024841 54 12 C54.33 11.01 54.66 10.02 55 9 C55.66 9 56.32 9 57 9 C56.505 6.525 56.505 6.525 56 4 C57.32 4 58.64 4 60 4 C60 3.01 60 2.02 60 1 C40.86 1 21.72 1 2 1 C1.67 1.99 1.34 2.98 1 4 C0.67 2.68 0.34 1.36 0 0 Z " fill="#5F57BC" transform="translate(96,100)"/>
<path d="M0 0 C2.40575607 2.18517099 3.79535581 4.25919671 5.1875 7.1875 C5.53167969 7.90292969 5.87585938 8.61835937 6.23046875 9.35546875 C6.48441406 9.89816406 6.73835938 10.44085938 7 11 C6.34 11 5.68 11 5 11 C5 10.34 5 9.68 5 9 C4.38125 8.690625 3.7625 8.38125 3.125 8.0625 C1.75 7.375 0.375 6.6875 -1 6 C-1.309375 6.78375 -1.61875 7.5675 -1.9375 8.375 C-3 11 -3 11 -4 13 C-4.66 13 -5.32 13 -6 13 C-6.08636719 13.64066406 -6.17273438 14.28132813 -6.26171875 14.94140625 C-7.28365377 21.23240075 -8.79961021 25.16955174 -13 30 C-13.66 30 -14.32 30 -15 30 C-15 30.66 -15 31.32 -15 32 C-15.66 31.67 -16.32 31.34 -17 31 C-14.74197314 26.74461918 -12.48159333 22.49050029 -10.21899414 18.23754883 C-9.44913471 16.78965403 -8.67992689 15.34141257 -7.91137695 13.89282227 C-6.80850379 11.81435787 -5.70331644 9.73713909 -4.59765625 7.66015625 C-4.25283707 7.00910416 -3.90801788 6.35805206 -3.55274963 5.68727112 C-1.11387171 1.11387171 -1.11387171 1.11387171 0 0 Z " fill="#6056BA" transform="translate(176,111)"/>
<path d="M0 0 C0.66 0.33 1.32 0.66 2 1 C1.125 4.875 1.125 4.875 0 6 C16.83 6.33 33.66 6.66 51 7 C51 7.33 51 7.66 51 8 C32.85 8 14.7 8 -4 8 C-2.68 5.36 -1.36 2.72 0 0 Z " fill="#4F46B4" transform="translate(109,60)"/>
<path d="M0 0 C0.83265381 0.00523682 1.66530762 0.01047363 2.52319336 0.01586914 C3.42231445 0.0190918 4.32143555 0.02231445 5.24780273 0.02563477 C6.66609375 0.03820312 6.66609375 0.03820312 8.11303711 0.05102539 C9.06243164 0.05553711 10.01182617 0.06004883 10.98999023 0.06469727 C13.34356776 0.07652429 15.69702188 0.09300514 18.05053711 0.11352539 C18.05053711 1.10352539 18.05053711 2.09352539 18.05053711 3.11352539 C15.30027294 3.16756988 12.55107508 3.20721845 9.80053711 3.23852539 C9.02323242 3.2552832 8.24592773 3.27204102 7.44506836 3.28930664 C0.32622567 3.35015145 0.32622567 3.35015145 -2.94946289 1.11352539 C-1.94946289 0.11352539 -1.94946289 0.11352539 0 0 Z " fill="#473BAE" transform="translate(58.949462890625,64.886474609375)"/>
<path d="M0 0 C3.50035864 4.1628097 6.38244453 8.58190582 9.25 13.1875 C9.70890625 13.91130859 10.1678125 14.63511719 10.640625 15.38085938 C11.07375 16.07373047 11.506875 16.76660156 11.953125 17.48046875 C12.34661133 18.10848389 12.74009766 18.73649902 13.14550781 19.38354492 C14 21 14 21 14 23 C10.55693322 21.59891136 9.20090337 20.21128017 7.421875 16.97265625 C6.98359375 16.18052734 6.5453125 15.38839844 6.09375 14.57226562 C5.6503125 13.74404297 5.206875 12.91582031 4.75 12.0625 C4.29109375 11.23814453 3.8321875 10.41378906 3.359375 9.56445312 C0 3.41059803 0 3.41059803 0 0 Z " fill="#5B50A5" transform="translate(109,181)"/>
<path d="M0 0 C7.92 0 15.84 0 24 0 C23 2 23 2 21.20800781 2.61889648 C18.97728368 3.00392085 16.93403161 3.11381451 14.671875 3.09765625 C13.87265625 3.09443359 13.0734375 3.09121094 12.25 3.08789062 C11.425 3.07951172 10.6 3.07113281 9.75 3.0625 C8.90953125 3.05798828 8.0690625 3.05347656 7.203125 3.04882812 C5.13538599 3.03707961 3.06768376 3.01914522 1 3 C0.67 2.01 0.34 1.02 0 0 Z " fill="#4941A0" transform="translate(189,133)"/>
<path d="M0 0 C1.23590089 3.70770267 0.49559869 4.51026972 -1 8 C-1.12375 8.825 -1.2475 9.65 -1.375 10.5 C-2.1890331 13.75613239 -3.71717948 15.57882672 -6 18 C-6.66 18 -7.32 18 -8 18 C-8 18.66 -8 19.32 -8 20 C-8.66 19.67 -9.32 19.34 -10 19 C-6.7 12.73 -3.4 6.46 0 0 Z " fill="#645BC4" transform="translate(169,123)"/>
<path d="M0 0 C1.65 0 3.3 0 5 0 C1.31531298 6.87695043 -2.75541099 13.45574894 -7 20 C-8 17 -8 17 -7.3125 14.5625 C-5.89344754 11.791969 -4.22192336 10.15024841 -2 8 C-1.67 7.01 -1.34 6.02 -1 5 C-0.34 5 0.32 5 1 5 C0.67 3.35 0.34 1.7 0 0 Z " fill="#655DC5" transform="translate(152,104)"/>
<path d="M0 0 C0.66 0 1.32 0 2 0 C2.185625 0.9590625 2.185625 0.9590625 2.375 1.9375 C2.684375 2.9584375 2.684375 2.9584375 3 4 C3.66 4.33 4.32 4.66 5 5 C5.33 5.99 5.66 6.98 6 8 C6.99 8 7.98 8 9 8 C9.99 11.63 10.98 15.26 12 19 C11.34 19 10.68 19 10 19 C8.85498047 17.47119141 8.85498047 17.47119141 7.6171875 15.3515625 C7.17246094 14.59359375 6.72773437 13.835625 6.26953125 13.0546875 C5.80933594 12.25289062 5.34914063 11.45109375 4.875 10.625 C4.40707031 9.8309375 3.93914062 9.036875 3.45703125 8.21875 C0 2.2722531 0 2.2722531 0 0 Z " fill="#655DC8" transform="translate(99,105)"/>
<path d="M0 0 C2.61715838 2.38923768 4.36199113 4.97100751 6.1875 8 C6.98220703 9.299375 6.98220703 9.299375 7.79296875 10.625 C9 13 9 13 9 16 C8.01 15.67 7.02 15.34 6 15 C5.64587656 13.67203709 5.31478446 12.33783393 5 11 C4.525625 10.5875 4.05125 10.175 3.5625 9.75 C1.04422702 6.92953427 0.7800202 3.6600948 0 0 Z " fill="#6259C0" transform="translate(90,141)"/>
<path d="M0 0 C0.99 0.33 1.98 0.66 3 1 C2.04855402 2.81612488 1.08863067 4.62781081 0.125 6.4375 C-0.40867187 7.44683594 -0.94234375 8.45617187 -1.4921875 9.49609375 C-3 12 -3 12 -5 13 C-4.48474397 7.71862571 -2.74522883 4.42778844 0 0 Z " fill="#5449A4" transform="translate(82,54)"/>
<path d="M0 0 C0.66 0.33 1.32 0.66 2 1 C0.6302836 4.99500618 -1.25722422 7.80009492 -4 11 C-4.35233161 5.62694301 -4.35233161 5.62694301 -4 3 C-2 1 -2 1 0 0 Z " fill="#4339A9" transform="translate(205,148)"/>
<path d="M0 0 C0.66 1.32 1.32 2.64 2 4 C-5.92 4 -13.84 4 -22 4 C-22 3.67 -22 3.34 -22 3 C-14.74 2.67 -7.48 2.34 0 2 C0 1.34 0 0.68 0 0 Z " fill="#E2E0FD" transform="translate(211,129)"/>
<path d="M0 0 C2.95749791 3.46741134 5.07848152 6.86873527 7 11 C5.68 11 4.36 11 3 11 C3 10.34 3 9.68 3 9 C2.34 9 1.68 9 1 9 C1.33 7.35 1.66 5.7 2 4 C1.01 3.67 0.02 3.34 -1 3 C-0.67 2.01 -0.34 1.02 0 0 Z " fill="#6056BB" transform="translate(73,112)"/>
<path d="M0 0 C1.32 0.66 2.64 1.32 4 2 C3.34 2 2.68 2 2 2 C1.34 3.98 0.68 5.96 0 8 C-0.99 8 -1.98 8 -3 8 C-3 4.42424104 -1.91159393 2.94704065 0 0 Z " fill="#453C96" transform="translate(101,22)"/>
<path d="M0 0 C0.66 0 1.32 0 2 0 C6 6.75 6 6.75 6 9 C5.01 8.67 4.02 8.34 3 8 C3 7.01 3 6.02 3 5 C2.01 5 1.02 5 0 5 C-0.33 4.01 -0.66 3.02 -1 2 C-0.67 1.34 -0.34 0.68 0 0 Z " fill="#3E369F" transform="translate(134,27)"/>
<path d="M0 0 C0.66 0 1.32 0 2 0 C0.8141763 3.37503669 -0.27573689 5.64722731 -3 8 C-3.66 6.68 -4.32 5.36 -5 4 C-4.34 4 -3.68 4 -3 4 C-2.505 3.34 -2.01 2.68 -1.5 2 C-1.005 1.34 -0.51 0.68 0 0 Z " fill="#675EC5" transform="translate(129,144)"/>
<path d="M0 0 C0.66 0.33 1.32 0.66 2 1 C1.38722388 3.96175123 0.74627478 5.38058783 -1 8 C-1.99 7.67 -2.98 7.34 -4 7 C-2.68 4.69 -1.36 2.38 0 0 Z " fill="#5D53B1" transform="translate(109,60)"/>
<path d="M0 0 C2.25245881 2.68841859 3.88213958 4.64641875 5 8 C4.01 8.33 3.02 8.66 2 9 C1.896875 8.38125 1.79375 7.7625 1.6875 7.125 C1.12474627 4.63473516 1.12474627 4.63473516 -2 3 C-2 2.34 -2 1.68 -2 1 C-1.34 0.67 -0.68 0.34 0 0 Z " fill="#5F55C6" transform="translate(82,127)"/>
<path d="M0 0 C0.66 0.99 1.32 1.98 2 3 C1.375 5.625 1.375 5.625 0 8 C-1.32 8.33 -2.64 8.66 -4 9 C-2.68 6.03 -1.36 3.06 0 0 Z " fill="#6159BC" transform="translate(139,179)"/>
<path d="M0 0 C4.42857143 5.14285714 4.42857143 5.14285714 5 9 C2 8 2 8 0 5 C-0.125 2.3125 -0.125 2.3125 0 0 Z " fill="#5E57B0" transform="translate(183,123)"/>
<path d="M0 0 C0.66 0 1.32 0 2 0 C1.40072174 3.35595828 0.15377564 5.37801226 -2 8 C-2.66 7.67 -3.32 7.34 -4 7 C-2.68 4.69 -1.36 2.38 0 0 Z " fill="#5B52B3" transform="translate(114,51)"/>
<path d="M0 0 C0.66 1.32 1.32 2.64 2 4 C0.625 6 0.625 6 -1 8 C-1.66 8 -2.32 8 -3 8 C-1.125 2.25 -1.125 2.25 0 0 Z " fill="#5F58C5" transform="translate(158,144)"/>
</svg>
